<?xml version="1.0" encoding="UTF-8" standalone="no"?>
<!-- Created with Inkscape (http://www.inkscape.org/) -->

<svg
   xml:space="preserve"
   sodipodi:docname="logo_inkscape.svg"
   inkscape:version="1.2.2 (b0a8486541, 2022-12-01)"
   inkscape:export-ydpi="96"
   inkscape:export-xdpi="96"
   inkscape:export-filename="logo.svg"
   id="svg5"
   version="1.1"
   viewBox="0 0 84.6455 22.827137"
   height="22.827137mm"
   width="84.6455mm"
   xmlns:inkscape="http://www.inkscape.org/namespaces/inkscape"
   xmlns:sodipodi="http://sodipodi.sourceforge.net/DTD/sodipodi-0.dtd"
   xmlns="http://www.w3.org/2000/svg"
   xmlns:svg="http://www.w3.org/2000/svg"><sodipodi:namedview
     id="namedview7"
     pagecolor="#ffffff"
     bordercolor="#666666"
     borderopacity="1.0"
     inkscape:showpageshadow="2"
     inkscape:pageopacity="0.0"
     inkscape:pagecheckerboard="0"
     inkscape:deskcolor="#d1d1d1"
     inkscape:document-units="mm"
     showgrid="false"
     inkscape:zoom="1.6819304"
     inkscape:cx="354.94929"
     inkscape:cy="64.806487"
     inkscape:window-width="1920"
     inkscape:window-height="1117"
     inkscape:window-x="0"
     inkscape:window-y="0"
     inkscape:window-maximized="1"
     inkscape:current-layer="layer1" /><defs
     id="defs2" /><g
     inkscape:label="Ebene 1"
     inkscape:groupmode="layer"
     id="layer1"
     style="display:inline"
     transform="translate(-47.880109,-27.850261)"><g
       id="g8377"
       transform="translate(-25.003791,-13.711941)"><g
         id="g490"
         transform="translate(45.555807,19.047649)"><text
           xml:space="preserve"
           style="font-style:normal;font-variant:normal;font-weight:normal;font-stretch:normal;font-size:8.46667px;line-height:1.25;font-family:sans-serif;-inkscape-font-specification:'sans-serif, Normal';font-variant-ligatures:normal;font-variant-caps:normal;font-variant-numeric:normal;font-variant-east-asian:normal;stroke-width:0.264583"
           x="41.149979"
           y="35.902065"
           id="text203"><tspan
             sodipodi:role="line"
             id="tspan201"
             style="font-style:normal;font-variant:normal;font-weight:normal;font-stretch:normal;font-size:8.46667px;font-family:sans-serif;-inkscape-font-specification:'sans-serif, Normal';font-variant-ligatures:normal;font-variant-caps:normal;font-variant-numeric:normal;font-variant-east-asian:normal;fill:#550000;stroke-width:0.264583"
             x="41.149979"
             y="35.902065">.</tspan></text><text
           xml:space="preserve"
           style="font-style:normal;font-variant:normal;font-weight:normal;font-stretch:normal;font-size:8.46667px;line-height:1.25;font-family:sans-serif;-inkscape-font-specification:'sans-serif, Normal';font-variant-ligatures:normal;font-variant-caps:normal;font-variant-numeric:normal;font-variant-east-asian:normal;stroke-width:0.264583"
           x="56.668346"
           y="35.902065"
           id="text203-1"><tspan
             sodipodi:role="line"
             id="tspan201-1"
             style="font-style:normal;font-variant:normal;font-weight:normal;font-stretch:normal;font-size:8.46667px;font-family:sans-serif;-inkscape-font-specification:'sans-serif, Normal';font-variant-ligatures:normal;font-variant-caps:normal;font-variant-numeric:normal;font-variant-east-asian:normal;fill:#550000;stroke-width:0.264583"
             x="56.668346"
             y="35.902065">.</tspan></text><text
           xml:space="preserve"
           style="font-style:normal;font-variant:normal;font-weight:normal;font-stretch:normal;font-size:8.46667px;line-height:1.25;font-family:sans-serif;-inkscape-font-specification:'sans-serif, Normal';font-variant-ligatures:normal;font-variant-caps:normal;font-variant-numeric:normal;font-variant-east-asian:normal;stroke-width:0.264583"
           x="83.885887"
           y="35.902065"
           id="text203-8"><tspan
             sodipodi:role="line"
             id="tspan201-4"
             style="font-style:normal;font-variant:normal;font-weight:normal;font-stretch:normal;font-size:8.46667px;font-family:sans-serif;-inkscape-font-specification:'sans-serif, Normal';font-variant-ligatures:normal;font-variant-caps:normal;font-variant-numeric:normal;font-variant-east-asian:normal;fill:#550000;stroke-width:0.264583"
             x="83.885887"
             y="35.902065">.</tspan></text><text
           xml:space="preserve"
           style="font-style:normal;font-variant:normal;font-weight:normal;font-stretch:normal;font-size:8.46667px;line-height:1.25;font-family:sans-serif;-inkscape-font-specification:'sans-serif, Normal';font-variant-ligatures:normal;font-variant-caps:normal;font-variant-numeric:normal;font-variant-east-asian:normal;stroke-width:0.264583"
           x="68.620827"
           y="35.902065"
           id="text203-5"><tspan
             sodipodi:role="line"
             id="tspan201-9"
             style="font-style:normal;font-variant:normal;font-weight:normal;font-stretch:normal;font-size:8.46667px;font-family:sans-serif;-inkscape-font-specification:'sans-serif, Normal';font-variant-ligatures:normal;font-variant-caps:normal;font-variant-numeric:normal;font-variant-east-asian:normal;fill:#550000;stroke-width:0.264583"
             x="68.620827"
             y="35.902065">.</tspan></text></g><g
         id="g8357"
         transform="translate(33.424122,1.971186)"><g
           id="g8216"
           inkscape:export-filename="logo.svg"
           inkscape:export-xdpi="300"
           inkscape:export-ydpi="300"
           transform="translate(11.765881,17.149059)"><text
             xml:space="preserve"
             style="font-style:normal;font-variant:normal;font-weight:900;font-stretch:normal;font-size:8.46667px;line-height:1.25;font-family:'Source Sans 3';-inkscape-font-specification:'Source Sans 3, Heavy';font-variant-ligatures:normal;font-variant-caps:normal;font-variant-numeric:diagonal-fractions;font-variant-east-asian:normal;stroke-width:0.264583"
             x="26.700472"
             y="42.866787"
             id="text113"><tspan
               sodipodi:role="line"
               id="tspan111"
               style="font-style:normal;font-variant:normal;font-weight:900;font-stretch:normal;font-size:8.46667px;font-family:'Source Sans 3';-inkscape-font-specification:'Source Sans 3, Heavy';font-variant-ligatures:normal;font-variant-caps:normal;font-variant-numeric:diagonal-fractions;font-variant-east-asian:normal;fill:#800000;stroke-width:0.264583"
               x="26.700472"
               y="42.866787"><tspan
                 style="font-style:normal;font-variant:normal;font-weight:900;font-stretch:normal;font-size:22.5778px;font-family:'Source Sans 3';-inkscape-font-specification:'Source Sans 3, Heavy';font-variant-ligatures:normal;font-variant-caps:normal;font-variant-numeric:diagonal-fractions;font-variant-east-asian:normal"
                 id="tspan181">G<tspan
   style="font-style:normal;font-variant:normal;font-weight:900;font-stretch:normal;font-size:8.46667px;font-family:'Source Sans 3';-inkscape-font-specification:'Source Sans 3, Heavy';font-variant-ligatures:normal;font-variant-caps:normal;font-variant-numeric:diagonal-fractions;font-variant-east-asian:normal"
   id="tspan189"> </tspan>A<tspan
   style="font-style:normal;font-variant:normal;font-weight:900;font-stretch:normal;font-size:8.46667px;font-family:'Source Sans 3';-inkscape-font-specification:'Source Sans 3, Heavy';font-variant-ligatures:normal;font-variant-caps:normal;font-variant-numeric:diagonal-fractions;font-variant-east-asian:normal"
   id="tspan191"> </tspan>T<tspan
   style="font-style:normal;font-variant:normal;font-weight:900;font-stretch:normal;font-size:8.46667px;font-family:'Source Sans 3';-inkscape-font-specification:'Source Sans 3, Heavy';font-variant-ligatures:normal;font-variant-caps:normal;font-variant-numeric:diagonal-fractions;font-variant-east-asian:normal"
   id="tspan193"> </tspan>E</tspan></tspan></text><path
             style="fill:#800000;stroke-width:0.0400514"
             d="m 97.052983,45.223426 c -0.257046,-0.03057 -0.56375,-0.07511 -0.681565,-0.099 -0.117807,-0.02389 -0.503382,-0.08405 -0.856821,-0.133697 -0.813475,-0.114268 -1.00365,-0.20333 -1.376432,-0.644549 -0.149919,-0.177439 -0.264866,-0.354599 -0.280605,-0.432468 -0.01465,-0.07255 -0.0404,-0.150437 -0.05721,-0.17309 -0.0404,-0.05445 -0.143776,-0.50466 -0.19861,-0.864936 -0.06856,-0.450521 -0.08783,-1.356415 -0.03495,-1.643167 0.06577,-0.35652 0.231376,-0.519172 0.52864,-0.519172 0.13923,0 0.140757,0.0017 0.06534,0.07207 -0.13216,0.12334 -0.187347,0.683417 -0.12983,1.317563 0.06693,0.737902 0.24659,1.498282 0.399349,1.690156 0.387142,0.48628 0.718757,0.580545 1.498669,0.426013 0.110079,-0.02182 0.232762,-0.0583 0.272626,-0.08107 0.360577,-0.206033 1.522447,-0.739153 1.686525,-0.773856 0.14538,-0.03074 0.175039,-0.09436 0.212803,-0.456456 0.02999,-0.287511 -0.01583,-0.524644 -0.131388,-0.680002 -0.08232,-0.110672 -0.442426,-0.350224 -0.663377,-0.441297 -0.224217,-0.09243 -0.46283,-0.364683 -0.60439,-0.689623 -0.11707,-0.268735 -0.141557,-0.298581 -0.265031,-0.323078 -0.236812,-0.04698 -0.507882,-0.48316 -0.577561,-0.929345 -0.06243,-0.399825 0.0025,-0.779459 0.210781,-1.2317 0.146295,-0.317692 0.186697,-0.369644 0.435833,-0.560423 0.151024,-0.115656 0.344693,-0.233877 0.430376,-0.26273 0.08569,-0.02884 0.173311,-0.06638 0.194733,-0.0834 0.02142,-0.01703 0.214205,-0.07485 0.428411,-0.128493 0.334323,-0.08374 0.488721,-0.09754 1.090502,-0.09754 0.792679,0 0.919721,0.02533 1.413939,0.281905 0.97605,0.506722 1.39164,1.737915 0.88458,2.620645 -0.10997,0.191452 -0.17939,0.261156 -0.35208,0.353556 -0.2487,0.133074 -0.26498,0.150859 -0.32829,0.358679 -0.0686,0.22506 -0.335358,0.56257 -0.502134,0.635207 -0.637319,0.277567 -0.86735,0.44499 -1.016942,0.740153 -0.112215,0.221419 -0.135369,0.400695 -0.07916,0.612989 0.03782,0.142889 0.06698,0.183922 0.131202,0.184703 0.206273,0.0026 0.971023,0.2937 1.562534,0.594959 0.56832,0.289444 1.06089,0.431508 1.49944,0.432454 0.3536,7.61e-4 0.78622,-0.197601 0.95949,-0.439939 0.20568,-0.287691 0.27183,-0.486262 0.38809,-1.165103 0.0922,-0.538659 0.0954,-1.558436 0.007,-1.801949 -0.0355,-0.09627 -0.0521,-0.176925 -0.037,-0.179219 0.0979,-0.01487 0.30843,0.01911 0.35164,0.05674 0.10851,0.09452 0.20086,0.364712 0.24457,0.715484 0.0378,0.302729 0.0345,0.462448 -0.0188,0.941224 -0.0815,0.732467 -0.18244,1.226463 -0.29864,1.462153 -0.33972,0.68918 -0.7806,1.008019 -1.47816,1.069 -0.20349,0.01778 -0.57153,0.07042 -0.81787,0.11698 -0.81457,0.153936 -1.17594,0.183238 -2.414684,0.195801 -0.845932,0.0087 -1.371911,-0.0048 -1.694173,-0.04314 z m 3.213087,-0.472063 c 0.5658,-0.08408 0.65428,-0.106985 0.56472,-0.146181 -0.0428,-0.01875 -0.14969,-0.08549 -0.23744,-0.148344 -0.0877,-0.06284 -0.21042,-0.126989 -0.27262,-0.14254 -0.0622,-0.01556 -0.27394,-0.107963 -0.470548,-0.205328 -0.688149,-0.340825 -0.886032,-0.401714 -1.317231,-0.405312 -0.378393,-0.0032 -0.623156,0.05616 -0.904642,0.219271 -0.03796,0.022 -0.217991,0.108271 -0.400067,0.191716 -0.182074,0.08345 -0.458492,0.214141 -0.614261,0.290427 -0.155769,0.07629 -0.300358,0.138703 -0.321309,0.138703 -0.02096,0 -0.03808,0.01558 -0.03808,0.03462 0,0.05862 0.319704,0.119087 1.207342,0.228355 0.285141,0.0351 2.488035,-0.0084 2.804146,-0.05541 z m 0.12093,-4.474475 c 0.12519,-0.278851 0.13747,-0.376964 0.061,-0.487537 -0.0618,-0.08943 -0.24457,-0.09831 -0.32271,-0.01568 -0.0308,0.03252 -0.0657,0.159939 -0.0776,0.283164 l -0.0217,0.224044 0.0849,-0.133859 c 0.0799,-0.126 0.15187,-0.164756 0.20387,-0.109773 0.0279,0.02954 -0.0459,0.264217 -0.0831,0.264217 -0.0468,0 -0.16037,0.23564 -0.16037,0.332737 v 0.0935 l 0.10146,-0.09985 c 0.0558,-0.05492 0.1522,-0.212851 0.2142,-0.350964 z m -3.548228,0.252063 c 0,-0.03346 0.04381,-0.09119 0.09736,-0.1283 0.05356,-0.03711 0.09736,-0.08492 0.09736,-0.106256 0,-0.02133 -0.03867,-0.01013 -0.08591,0.02485 -0.08383,0.06209 -0.08704,0.0589 -0.132869,-0.131524 -0.02582,-0.107337 -0.04413,-0.196671 -0.04066,-0.198518 0.0035,-0.0018 0.04842,-0.03338 0.09991,-0.07008 l 0.0936,-0.06672 -0.102189,-0.04924 c -0.07896,-0.03805 -0.114868,-0.03811 -0.15797,-2.89e-4 -0.04343,0.03811 -0.05976,0.03717 -0.0737,-0.0042 -0.02393,-0.07107 -0.223334,0.120552 -0.223334,0.214632 0,0.03747 0.0565,0.159351 0.125539,0.270837 0.171562,0.277007 0.302872,0.383157 0.302872,0.244838 z m -0.152954,-0.253628 c -0.04439,-0.05969 -0.08072,-0.128159 -0.08072,-0.152159 0,-0.02401 0.04381,0.01917 0.09736,0.09593 0.05355,0.07676 0.09736,0.145232 0.09736,0.152159 0,0.0363 -0.04185,0.0011 -0.114006,-0.09593 z m -1.435947,3.640114 c -0.02233,-0.02844 -0.0529,-0.103638 -0.06797,-0.167115 -0.01507,-0.06348 -0.06905,-0.144269 -0.11997,-0.179553 -0.123147,-0.08534 -0.11672,-0.154461 0.02426,-0.260617 0.135253,-0.101851 0.150122,-0.164748 0.03895,-0.164748 -0.09307,0 -0.09315,-6.68e-4 -0.02108,-0.147576 0.07514,-0.153163 0.03672,-0.193315 -0.249218,-0.260398 -0.129803,-0.03045 -0.236006,-0.06404 -0.236006,-0.07462 0,-0.01059 0.03505,-0.06638 0.0779,-0.123983 0.0469,-0.06306 0.0779,-0.167088 0.0779,-0.261487 0,-0.191651 0.04214,-0.22448 0.186689,-0.145431 0.162046,0.08862 0.212278,0.170335 0.2168,0.352675 l 0.004,0.162344 0.273336,0.0481 c 0.326581,0.05747 0.3746,0.08169 0.254869,0.128534 -0.04961,0.01942 -0.07856,0.0476 -0.06434,0.06265 0.02221,0.02349 0.335156,0.08091 0.589107,0.1081 0.09657,0.01024 0.292099,0.145815 0.292099,0.202391 0,0.02481 -0.05547,0.03232 -0.136313,0.01845 -0.120683,-0.02072 -0.136494,-0.01307 -0.137895,0.06669 -8.73e-4,0.04955 -0.05074,0.150832 -0.110848,0.225083 -0.123397,0.152465 -0.226268,0.145701 -0.245563,-0.01614 -0.01151,-0.09597 -0.01612,-0.09763 -0.09963,-0.03536 -0.05284,0.03939 -0.08825,0.109386 -0.08919,0.176263 l -0.0015,0.110923 -0.05937,-0.115811 c -0.08166,-0.159296 -0.149305,-0.11901 -0.16414,0.09774 -0.01545,0.225764 -0.131551,0.321944 -0.232832,0.192885 z m 0.809977,-0.772033 c 0,-0.02265 -0.02732,-0.04118 -0.06072,-0.04118 -0.0334,0 -0.04989,0.01853 -0.03665,0.04118 0.01324,0.02265 0.04057,0.04118 0.06073,0.04118 0.02016,0 0.03665,-0.01853 0.03665,-0.04118 z m 5.423292,0.773479 c -0.10816,-0.05515 -0.10841,-0.08047 -0.004,-0.347065 l 0.0837,-0.213582 -0.091,-0.333379 c -0.0659,-0.240962 -0.0793,-0.345846 -0.0485,-0.378352 0.0686,-0.07258 0.31712,0.135232 0.44512,0.372248 0.062,0.114962 0.12204,0.209025 0.13327,0.209025 0.0568,0 0.23625,-0.223032 0.27366,-0.340083 l 0.0426,-0.133572 0.14243,0.150334 c 0.15906,0.167888 0.18409,0.324572 0.0844,0.528384 -0.0588,0.12009 -0.0873,0.136376 -0.33092,0.188548 -0.14029,0.03004 -0.2104,0.09542 -0.27355,0.255091 -0.0301,0.07635 -0.066,0.09218 -0.20313,0.08988 -0.0915,-0.0016 -0.20593,-0.0229 -0.25412,-0.04748 z m 3.18934,-2.195905 c -0.14842,-0.132081 -0.21923,-0.456093 -0.18743,-0.857656 0.0245,-0.309998 0.0895,-0.447672 0.61623,-1.305012 0.14674,-0.23884 0.26678,-0.456899 0.26678,-0.484576 0,-0.02768 0.0506,-0.147346 0.11258,-0.265931 0.0977,-0.187111 0.18583,-0.413336 0.41289,-1.059953 0.0279,-0.07928 0.0801,-0.264629 0.11617,-0.411874 0.0361,-0.147245 0.0892,-0.36039 0.11792,-0.473655 0.27002,-1.061295 0.43122,-3.209666 0.3971,-5.292584 -0.0185,-1.128647 -0.0849,-1.930244 -0.18225,-2.201183 -0.0219,-0.06086 -0.0398,-0.157951 -0.0398,-0.215732 0,-0.105664 -0.0179,-0.172186 -0.23317,-0.864086 -0.0645,-0.207508 -0.11742,-0.406122 -0.11742,-0.441367 0,-0.03524 -0.0253,-0.124946 -0.0561,-0.199337 -0.14245,-0.344042 -0.41134,-1.077333 -0.41134,-1.121805 0,-0.07049 -0.41355,-0.790458 -0.5804,-1.010454 -0.30069,-0.396492 -0.6627,-0.768643 -1.02892,-1.057781 -0.21038,-0.166095 -0.4079,-0.301992 -0.43893,-0.301992 -0.0501,0 -0.14851,-0.05694 -0.47961,-0.277419 l -0.0937,-0.0624 0.15212,-0.05548 c 0.0837,-0.03052 0.22661,-0.06737 0.31767,-0.08189 0.091,-0.01452 0.16551,-0.03445 0.16551,-0.04431 0,-0.0099 -0.035,-0.09463 -0.0779,-0.188403 -0.043,-0.09377 -0.0779,-0.176282 -0.0779,-0.183354 0,-0.0071 0.054,-0.01286 0.12017,-0.01286 h 0.12018 l -0.15681,-0.208274 c -0.15054,-0.199946 -0.26972,-0.473452 -0.22632,-0.519355 0.0507,-0.05366 0.34195,0.04528 0.55745,0.189383 0.17424,0.116504 0.26691,0.214945 0.35607,0.378283 l 0.12055,0.220791 0.49884,0.0063 c 0.6817,0.0086 1.05862,0.107235 1.66722,0.436363 0.0857,0.04634 0.2259,0.121207 0.31159,0.166372 0.0857,0.04517 0.19959,0.114371 0.25314,0.153795 0.0535,0.03942 0.14071,0.08594 0.19371,0.103376 0.053,0.01744 0.237,0.126758 0.40893,0.242943 0.17193,0.116183 0.35641,0.231764 0.40997,0.256839 0.0848,0.0397 0.25121,0.161175 0.66957,0.488714 0.16109,0.126128 0.83476,0.711048 0.97551,0.846991 0.0688,0.06658 0.16074,0.132561 0.20403,0.146637 0.0433,0.01408 0.15761,0.08447 0.25399,0.156424 0.23611,0.176254 0.31603,0.209927 0.99315,0.418515 1.12223,0.345702 1.26561,0.489874 1.26587,1.2728 2.2e-4,0.72038 -0.1895,2.556164 -0.35545,3.439422 -0.15583,0.829346 -0.43969,1.580753 -0.78198,2.070017 -0.46743,0.668179 -0.87995,0.825152 -1.43883,0.547518 -0.11467,-0.05697 -0.28666,-0.165181 -0.38217,-0.240465 -0.25043,-0.197426 -0.64597,-0.732814 -0.91936,-1.244415 -0.0605,-0.113268 -0.14814,-0.261542 -0.19471,-0.329501 -0.0465,-0.06797 -0.0968,-0.177655 -0.11169,-0.24377 -0.0149,-0.06611 -0.0508,-0.156134 -0.0799,-0.200043 -0.0509,-0.07681 -0.0551,-0.07539 -0.11044,0.03782 -0.0778,0.159009 -0.18929,0.578491 -0.33807,1.270916 -0.0682,0.317143 -0.13906,0.632227 -0.15761,0.700186 -0.0546,0.20023 -0.1503,1.064391 -0.19228,1.737889 -0.0843,1.352116 -0.40012,2.711072 -0.81517,3.507526 -0.1796,0.344663 -0.41874,0.711191 -0.49529,0.759179 -0.0285,0.01784 -0.1032,0.110502 -0.16589,0.205938 -0.0627,0.09543 -0.17636,0.244501 -0.25239,0.331257 -0.0761,0.08676 -0.14991,0.196682 -0.16419,0.244282 -0.0142,0.04759 -0.072,0.154079 -0.12823,0.236624 -0.12851,0.188668 -0.30155,0.5841 -0.35586,0.813213 -0.0227,0.09629 -0.057,0.175046 -0.0759,0.175046 -0.019,0 -0.0873,-0.04699 -0.15181,-0.104424 z m 5.87546,-8.456876 c 0.10309,-0.07722 0.3699,-0.571763 0.40285,-0.746507 0.0113,-0.05694 0.0548,-0.233256 0.098,-0.391829 0.21469,-0.788741 0.2555,-1.110901 0.25571,-2.018182 2e-4,-0.942228 -0.0362,-1.160588 -0.27533,-1.651891 -0.11791,-0.242326 -0.50671,-0.695379 -0.73438,-0.855811 -0.0857,-0.06039 -0.25356,-0.188082 -0.37309,-0.283786 -0.11954,-0.0957 -0.30354,-0.242565 -0.40893,-0.326357 -0.10547,-0.08379 -0.34936,-0.35254 -0.54214,-0.597218 -0.80688,-1.024051 -1.65896,-1.742271 -2.06702,-1.742271 -0.12507,0 -0.1262,0.0017 -0.0873,0.133858 0.0425,0.144261 0.10434,0.278467 0.47852,1.039984 0.37395,0.760876 0.46719,1.189231 0.50342,2.312844 0.0189,0.585094 0.0636,0.939604 0.16415,1.298794 0.0296,0.106199 0.0546,0.217401 0.0553,0.247124 7.2e-4,0.02972 0.0352,0.128185 0.0765,0.218792 0.0414,0.09062 0.0757,0.197436 0.0765,0.237388 7.3e-4,0.03995 0.0977,0.302996 0.21554,0.584546 0.1178,0.28155 0.21421,0.5287 0.21421,0.549223 0,0.02052 0.0696,0.165233 0.15475,0.321577 0.0851,0.156345 0.19489,0.367667 0.24392,0.469606 0.23449,0.487441 0.82864,1.148612 1.13971,1.268264 0.1398,0.05377 0.27669,0.03097 0.40892,-0.06815 z m -3.98449,-4.775137 c 0.24347,-0.348264 0.42449,-1.006725 0.39123,-1.423153 -0.0247,-0.309304 -0.16503,-0.776869 -0.36219,-1.206792 -0.0951,-0.207318 -0.17346,-0.392662 -0.17417,-0.411874 -10e-4,-0.04557 -0.15235,-0.236812 -0.17002,-0.21581 -0.008,0.0089 -0.0945,0.194361 -0.19349,0.412199 -0.0989,0.217838 -0.25015,0.47731 -0.33597,0.576606 -0.0858,0.0993 -0.15605,0.196218 -0.15605,0.215385 0,0.01917 0.0322,0.08405 0.0716,0.144174 0.17902,0.27343 0.65172,1.491888 0.61646,1.589029 -0.0285,0.07845 0.0502,0.134502 0.0909,0.06481 0.0181,-0.03108 0.0413,0.03264 0.0578,0.159471 0.0152,0.116184 0.04,0.211234 0.0554,0.211234 0.0154,0 0.0643,-0.05187 0.10852,-0.115271 z M 92.645561,41.421367 c -0.468147,-0.323361 -1.070127,-0.929076 -1.686056,-1.69652 -0.156588,-0.195107 -0.546901,-0.884222 -0.546901,-0.965577 0,-0.0262 -0.0148,-0.06523 -0.03287,-0.08676 -0.07369,-0.08771 -0.292148,-0.803964 -0.413922,-1.357125 -0.104066,-0.47269 -0.182321,-1.272813 -0.21352,-2.182934 -0.04099,-1.195747 -0.101974,-1.675744 -0.271389,-2.136148 l -0.04341,-0.117969 -0.11612,0.154517 c -0.06386,0.08498 -0.116118,0.170973 -0.116118,0.191082 0,0.03995 -0.313971,0.412264 -0.763676,0.905601 -0.536135,0.588146 -0.776711,0.653359 -1.193701,0.323572 -0.122997,-0.09728 -0.223627,-0.189392 -0.223627,-0.204706 0,-0.01532 -0.05957,-0.101441 -0.132391,-0.191411 -0.07281,-0.08996 -0.184829,-0.264742 -0.24892,-0.388397 -0.06408,-0.123662 -0.205745,-0.391639 -0.314786,-0.595517 -0.109039,-0.203879 -0.198576,-0.391427 -0.198965,-0.416775 -3.9e-4,-0.02535 -0.07109,-0.182889 -0.157096,-0.350092 -0.08601,-0.167204 -0.182621,-0.368876 -0.214685,-0.448164 -0.03206,-0.07928 -0.165089,-0.375834 -0.295614,-0.658997 -0.830778,-1.802328 -0.985443,-2.229551 -0.978651,-2.703274 0.0037,-0.264383 0.09252,-0.511258 0.229382,-0.638178 0.09663,-0.0896 0.587046,-0.365416 0.649753,-0.365416 0.02734,0 0.27665,-0.120218 0.55401,-0.267137 0.27736,-0.146923 0.517095,-0.267396 0.532745,-0.267717 0.01566,-3.29e-4 0.126836,-0.07009 0.247079,-0.155036 0.120246,-0.08495 0.320545,-0.219322 0.44511,-0.298609 0.322051,-0.204983 0.75992,-0.520309 1.026272,-0.739058 0.125674,-0.103206 0.300553,-0.229995 0.388621,-0.281739 0.08807,-0.05174 0.195667,-0.128364 0.239109,-0.170267 0.223944,-0.216009 1.34142,-0.924463 2.091992,-1.326275 0.07897,-0.04228 0.153782,-0.09433 0.166262,-0.115682 0.0125,-0.02135 0.11592,-0.0757 0.229861,-0.120796 0.113944,-0.04509 0.37212,-0.166321 0.573721,-0.269412 0.313706,-0.160415 0.372793,-0.178655 0.409865,-0.126514 0.0352,0.04953 0.06266,0.01533 0.146666,-0.182622 0.149617,-0.352573 0.427881,-0.586037 0.837537,-0.702693 0.233539,-0.06651 0.265356,-0.01208 0.118357,0.202554 -0.09439,0.1378 -0.116407,0.204472 -0.09862,0.298596 0.01311,0.06939 7.7e-5,0.168349 -0.03051,0.231538 -0.02939,0.0607 -0.06554,0.204953 -0.08034,0.320575 l -0.02692,0.210219 0.183567,0.02661 c 0.261962,0.03797 0.749902,0.03113 0.930003,-0.01303 0.232901,-0.05712 0.253316,2.48e-4 0.03798,0.106711 -0.105388,0.05211 -0.205111,0.09541 -0.221603,0.09622 -0.01649,8.07e-4 -0.09536,0.04485 -0.175258,0.09784 -0.07991,0.05301 -0.189241,0.107838 -0.242976,0.121849 -0.129257,0.0337 -0.742681,0.531633 -1.012275,0.821694 -0.293457,0.315732 -0.623145,0.715016 -0.623145,0.754686 0,0.01801 -0.09794,0.203928 -0.217644,0.413163 -0.119707,0.209235 -0.233357,0.454385 -0.252561,0.544777 -0.0192,0.09039 -0.102324,0.318923 -0.184714,0.507848 -0.281867,0.646359 -0.242457,0.516669 -0.498641,1.640904 -0.271209,1.19017 -0.326227,1.742904 -0.32633,3.278443 -1.56e-4,2.073011 0.177194,3.917264 0.486733,5.062011 0.03062,0.113267 0.0665,0.252272 0.0797,0.308905 0.117633,0.504183 0.738351,1.907861 1.101907,2.491839 0.09871,0.158571 0.20782,0.36245 0.242444,0.453063 0.03463,0.09062 0.09759,0.229619 0.139915,0.308905 0.08427,0.157844 0.267223,0.733777 0.241681,0.760791 -0.0087,0.0092 -0.08813,-0.03301 -0.176348,-0.09395 z m -4.893008,-7.926118 c 0.0893,-0.05097 0.233924,-0.156478 0.321384,-0.234462 0.16629,-0.148274 0.702913,-0.951626 0.702913,-1.052295 0,-0.03197 0.08909,-0.237142 0.197969,-0.455932 0.108881,-0.21879 0.220628,-0.465721 0.248323,-0.548735 0.02769,-0.08302 0.138544,-0.318896 0.246327,-0.524178 0.107773,-0.205282 0.214272,-0.443335 0.23664,-0.529007 0.02237,-0.08568 0.0652,-0.186011 0.09517,-0.222974 0.04756,-0.05863 0.145214,-0.252518 0.442052,-0.877616 0.03954,-0.08328 0.143385,-0.287152 0.230758,-0.45306 0.08737,-0.16591 0.18222,-0.366524 0.210772,-0.445809 0.02855,-0.07928 0.08207,-0.181225 0.118921,-0.226532 0.07585,-0.09326 0.327643,-0.609415 0.368121,-0.754648 0.01467,-0.05261 0.09518,-0.242393 0.178927,-0.421744 0.08374,-0.179352 0.152267,-0.333818 0.152267,-0.343259 0,-0.0093 -0.03068,-0.0092 -0.06815,4.98e-4 -0.03749,0.0098 -0.116194,-0.01637 -0.174908,-0.05797 -0.127439,-0.09031 -0.527114,-0.567332 -0.585209,-0.698473 -0.02259,-0.05097 -0.05441,-0.09267 -0.07074,-0.09267 -0.165983,0 -1.134696,2.070014 -1.26249,2.697777 -0.01383,0.06796 -0.04955,0.188432 -0.07937,0.267718 -0.02981,0.07928 -0.108791,0.3573 -0.175512,0.61781 -0.06672,0.260511 -0.162281,0.584862 -0.212366,0.720781 -0.05008,0.135918 -0.106812,0.301771 -0.126075,0.368561 l -0.03501,0.121439 -0.06661,-0.203812 c -0.183002,-0.559882 -0.229703,-0.821067 -0.227924,-1.274687 0.0019,-0.480585 0.06162,-0.771061 0.249893,-1.215028 0.05284,-0.124587 0.119483,-0.291401 0.148103,-0.370687 0.02862,-0.07928 0.09907,-0.218294 0.156535,-0.308906 0.05747,-0.09062 0.144004,-0.248155 0.192296,-0.350093 0.04829,-0.101931 0.169343,-0.315084 0.268998,-0.473656 0.09967,-0.158572 0.206295,-0.343914 0.236975,-0.411874 0.03069,-0.06796 0.09934,-0.174531 0.152559,-0.236828 0.05322,-0.0623 0.08377,-0.113267 0.06786,-0.113267 -0.05463,0 -0.631362,0.408713 -0.724213,0.513234 -0.05109,0.05752 -0.114882,0.104583 -0.141758,0.104583 -0.02687,0 -0.115832,0.06912 -0.197681,0.153583 -0.08185,0.08447 -0.221371,0.209577 -0.310039,0.278014 -0.08867,0.06843 -0.272693,0.222216 -0.40894,0.341726 -0.340316,0.298516 -0.313403,0.277142 -0.553141,0.439324 -0.118357,0.08008 -0.226157,0.164332 -0.23955,0.187248 -0.01339,0.02291 -0.05573,0.04167 -0.09409,0.04167 -0.03837,0 -0.142333,0.0556 -0.231044,0.123558 -0.0887,0.06797 -0.175848,0.123559 -0.193637,0.123559 -0.01779,0 -0.101194,0.05508 -0.185333,0.122415 -0.08415,0.06733 -0.176321,0.122928 -0.204838,0.123558 -0.102607,0.0023 -0.822857,0.544735 -0.90116,0.678721 -0.174099,0.297906 -0.05447,0.831332 0.377593,1.683743 0.112984,0.222902 0.205425,0.415645 0.205425,0.428317 0,0.02045 0.220158,0.502045 0.664083,1.45267 0.07934,0.169898 0.166044,0.383043 0.19268,0.473656 0.02663,0.09062 0.12547,0.336193 0.219637,0.545733 0.164109,0.365173 0.176465,0.380984 0.29773,0.380984 0.06959,0 0.199581,-0.04169 0.288882,-0.09267 z m 4.747184,4.926973 c -0.04488,-0.123699 0.01653,-0.165733 0.775435,-0.530748 1.130237,-0.54362 1.542958,-0.846062 2.219396,-1.626371 0.300285,-0.346396 0.600693,-0.964504 0.709558,-1.459964 0.04683,-0.213137 0.06094,-0.444067 0.05295,-0.867126 -0.02896,-1.533279 -0.04372,-1.437841 0.335915,-2.169338 0.367497,-0.708085 0.536577,-1.230591 0.580031,-1.792465 0.02238,-0.289491 0.01423,-0.349673 -0.08154,-0.601286 -0.106122,-0.278857 -0.318914,-0.593603 -0.483985,-0.715875 -0.04789,-0.03548 -0.185139,-0.09157 -0.304996,-0.124677 -0.180431,-0.04983 -0.261923,-0.0516 -0.473704,-0.01024 -0.140683,0.02744 -0.268805,0.05772 -0.284719,0.06728 -0.01592,0.0096 0.02601,0.129029 0.09318,0.265489 0.116381,0.236482 0.120958,0.263744 0.09775,0.581984 -0.02216,0.303937 -0.03577,0.346592 -0.151587,0.475615 -0.245419,0.273375 -0.363076,0.301276 -1.14738,0.272084 -0.434962,-0.01619 -0.787884,-0.0091 -0.946659,0.01885 -0.409236,0.07219 -0.938388,0.257311 -1.163705,0.407116 -0.228882,0.152176 -0.305919,0.136067 -0.26069,-0.05452 0.02883,-0.121477 0.38759,-0.509238 0.534705,-0.577927 0.30843,-0.14401 1.203835,-0.628833 1.318101,-0.713693 0.199672,-0.148291 0.389465,-0.341718 0.389465,-0.396923 0,-0.150148 0.358909,-0.429315 0.553437,-0.430475 0.121608,-7.24e-4 0.518321,-0.137845 0.731798,-0.252941 0.138685,-0.07477 0.255406,-0.0977 0.559314,-0.109852 0.375088,-0.01501 0.390626,-0.01195 0.665532,0.131754 0.591999,0.309416 0.842764,0.749147 1.095062,1.920258 0.06582,0.305562 0.192139,0.614379 0.445341,1.088813 0.322002,0.603349 0.24885,1.459494 -0.22018,2.576867 -0.187491,0.446658 -0.400889,0.869911 -0.49839,0.988499 -0.04657,0.05663 -0.10489,0.153425 -0.129627,0.215094 -0.04597,0.114627 -0.270292,0.429001 -0.564358,0.790915 -0.243073,0.29916 -0.878912,0.970987 -0.918969,0.970987 -0.01905,0 -0.110554,0.07561 -0.20336,0.168052 -0.09279,0.09243 -0.248319,0.21689 -0.345597,0.276585 -0.09727,0.0597 -0.298944,0.197215 -0.448151,0.305604 -0.149207,0.108385 -0.285542,0.197071 -0.302969,0.197071 -0.01743,0 -0.22834,0.09938 -0.468699,0.220831 -0.486881,0.246028 -0.894989,0.405685 -1.274365,0.498547 -0.328939,0.08051 -0.453091,0.07954 -0.483336,-0.0039 z m 0.923112,-4.259856 c -0.30095,-0.05614 -0.626125,-0.256256 -0.902863,-0.555642 l -0.245977,-0.266106 -0.115819,0.103046 c -0.07807,0.06948 -0.162439,0.102841 -0.258875,0.102431 -0.244844,-0.0011 -0.257245,-0.04715 -0.06611,-0.245525 0.140626,-0.145955 0.181939,-0.223561 0.218112,-0.409718 0.05875,-0.30236 0.07623,-0.325443 0.13481,-0.178095 0.02706,0.06807 0.09622,0.158447 0.153706,0.200847 0.05747,0.0424 0.151229,0.130078 0.208341,0.194843 0.340158,0.385723 0.92628,0.72659 1.249373,0.72659 0.252649,0 0.35456,-0.04456 0.673062,-0.294254 0.292495,-0.229313 0.577164,-0.595585 0.720846,-0.927489 0.119096,-0.275095 0.08832,-0.413386 -0.183214,-0.823547 -0.254361,-0.384216 -0.359476,-0.426097 -1.068191,-0.425598 -0.801154,5.64e-4 -0.884188,0.01877 -1.104109,0.242147 -0.102867,0.104481 -0.259653,0.291902 -0.348417,0.416494 -0.08876,0.124587 -0.298984,0.37944 -0.467156,0.566328 -0.299493,0.33282 -0.309578,0.339796 -0.491348,0.339796 -0.202474,0 -0.429364,-0.09939 -0.405124,-0.177464 0.0084,-0.02699 0.112102,-0.123211 0.230499,-0.213816 0.667647,-0.510976 0.705479,-0.54579 1.012563,-0.931843 0.07885,-0.09912 0.199747,-0.25067 0.268671,-0.336775 0.06892,-0.0861 0.176194,-0.184381 0.23838,-0.218389 0.162685,-0.08897 0.663859,-0.113063 1.336338,-0.06424 0.69772,0.05065 0.917535,0.126013 0.987618,0.33862 0.06331,0.192085 0.0606,0.195692 -0.120933,0.160587 l -0.164924,-0.03189 0.103353,0.07961 c 0.05685,0.04379 0.16872,0.185736 0.248623,0.315439 0.07991,0.129704 0.214226,0.332207 0.298497,0.450007 0.171409,0.239611 0.171086,0.31904 -0.0019,0.473899 -0.05806,0.05196 -0.148633,0.159351 -0.201281,0.238636 -0.130051,0.195853 -0.227478,0.303833 -0.397433,0.440482 -0.07904,0.06355 -0.245536,0.201038 -0.369991,0.305525 -0.451505,0.379066 -0.75141,0.482976 -1.169107,0.405062 z m 9.568041,-0.07067 c -0.22871,-0.09231 -0.33621,-0.176148 -0.35448,-0.276454 -0.009,-0.05099 -0.0657,-0.09633 -0.15314,-0.123135 -0.13566,-0.04157 -0.39991,-0.249979 -0.62822,-0.495477 -0.2856,-0.307093 -0.44546,-0.502719 -0.49523,-0.606007 -0.0508,-0.105562 -0.046,-0.120913 0.0869,-0.276537 0.15893,-0.186043 0.33823,-0.535416 0.33823,-0.659069 0,-0.0452 0.0364,-0.185098 0.0809,-0.310861 0.12405,-0.350635 0.12562,-0.351052 1.3176,-0.351052 h 1.01286 l 0.10875,0.153221 c 0.1954,0.275265 0.82343,0.938494 0.9872,1.042521 0.0881,0.05591 0.28223,0.211819 0.43159,0.346457 l 0.27156,0.244797 -0.10298,0.05704 c -0.0566,0.03137 -0.11293,0.04648 -0.12511,0.03358 -0.0126,-0.0129 -0.0485,-4.53e-4 -0.0808,0.02767 -0.0467,0.04073 -0.0618,0.04067 -0.0751,-3.71e-4 -0.009,-0.02832 -0.0597,-0.05148 -0.11236,-0.05148 -0.11854,0 -0.28234,-0.0868 -0.38067,-0.20172 -0.0408,-0.04762 -0.0977,-0.08658 -0.1265,-0.08658 -0.0287,0 -0.0524,-0.01972 -0.0524,-0.04381 0,-0.0479 -0.57978,-0.768825 -0.77356,-0.961884 -0.11403,-0.113598 -0.14671,-0.122209 -0.59849,-0.157612 -0.26285,-0.02059 -0.69116,-0.02497 -0.95181,-0.0098 l -0.47393,0.0277 -0.0458,0.1168 c -0.0251,0.06424 -0.0885,0.178068 -0.14073,0.252944 -0.15408,0.220865 -0.21479,0.49709 -0.16444,0.748191 0.0373,0.186033 0.0782,0.24894 0.32519,0.501054 0.1554,0.158573 0.35469,0.333689 0.44287,0.389147 0.0882,0.05546 0.16927,0.130535 0.18017,0.166834 0.0553,0.184248 0.71187,0.225907 1.07444,0.06817 0.22434,-0.09759 0.51688,-0.31458 0.61936,-0.4594 0.0796,-0.112357 0.23405,-0.46859 0.23405,-0.539527 0,-0.03172 0.0175,-0.0577 0.0389,-0.0577 0.0214,0 0.0391,0.02316 0.0392,0.05148 2e-4,0.02832 0.0578,0.11635 0.12805,0.19564 0.38645,0.436255 0.46618,0.545571 0.49443,0.677997 0.0352,0.164664 0.0275,0.163015 -0.21789,-0.04697 -0.0879,-0.07522 -0.19254,-0.136772 -0.23255,-0.136772 -0.04,0 -0.17077,0.102591 -0.2906,0.227984 -0.21431,0.22428 -0.3126,0.295302 -0.6607,0.477418 -0.237,0.123996 -0.72428,0.146732 -0.9751,0.0455 z m -9.377833,-0.635859 c -0.162724,-0.03133 -0.243655,-0.07683 -0.375921,-0.211342 -0.28123,-0.286007 -0.317065,-0.618753 -0.110113,-1.022501 0.08171,-0.159403 0.137628,-0.210676 0.328698,-0.301357 0.318614,-0.151212 0.456359,-0.167212 0.701514,-0.08149 0.4489,0.156967 0.617384,0.371033 0.617384,0.784408 0,0.221291 -0.03442,0.298094 -0.258471,0.576633 -0.236938,0.294568 -0.42476,0.347737 -0.903086,0.255646 z m 0.479991,-0.313607 c 0.04284,-0.03975 0.109096,-0.110707 0.147229,-0.157704 0.08328,-0.102614 0.155687,-0.343916 0.103206,-0.343916 -0.01992,0 -0.03623,0.03696 -0.03623,0.08211 0,0.107679 -0.29031,0.329758 -0.431069,0.329758 -0.170062,0 -0.229498,-0.04039 -0.29524,-0.200636 -0.03479,-0.08478 -0.06955,-0.12627 -0.08035,-0.09589 -0.03337,0.09396 0.07588,0.30364 0.199882,0.383607 0.14897,0.09607 0.290843,0.09703 0.392569,0.0027 z m -0.291027,-0.612502 c 0.05296,-0.03833 0.109163,-0.0893 0.12491,-0.113268 0.05112,-0.07786 0.03141,-0.282334 -0.03465,-0.359536 -0.08298,-0.09697 -0.350219,-0.101236 -0.44852,-0.0072 -0.108734,0.104071 -0.09296,0.326339 0.03184,0.448644 0.121434,0.119023 0.195431,0.126116 0.326429,0.03131 z m 9.131889,0.772418 c -0.29043,-0.0751 -0.60366,-0.299574 -0.70474,-0.505041 -0.15177,-0.308476 0.0421,-0.897872 0.29544,-0.897872 0.0272,0 0.0209,0.03448 -0.0168,0.09154 -0.097,0.146552 -0.072,0.260375 0.0966,0.440634 0.1818,0.1942 0.27496,0.208889 0.41117,0.06484 0.0808,-0.08545 0.0948,-0.133198 0.0814,-0.278015 -0.0126,-0.134168 -0.0309,-0.17203 -0.0799,-0.162742 -0.0353,0.0067 -0.0637,-0.01489 -0.0637,-0.04828 0,-0.03322 -0.0634,-0.08254 -0.14099,-0.109592 -0.1032,-0.03599 -0.12665,-0.0588 -0.0876,-0.08494 0.0814,-0.05451 0.29715,-0.04418 0.59858,0.02866 0.24388,0.05894 0.2926,0.08826 0.4621,0.278122 0.23223,0.260113 0.29735,0.412555 0.29735,0.696002 0,0.396992 -0.17844,0.528055 -0.70952,0.521114 -0.17741,-0.0023 -0.37513,-0.01781 -0.43939,-0.03443 z m 0.62887,-0.18646 c 0.16459,-0.121913 0.26659,-0.520188 0.17319,-0.676163 -0.0383,-0.06395 -0.0562,-0.01897 -0.0988,0.249421 -0.023,0.143813 -0.147,0.294642 -0.35645,0.433192 -0.0659,0.04364 -0.059,0.04933 0.0633,0.05148 0.0755,0.0013 0.17406,-0.02473 0.21886,-0.05794 z m 1.11631,-2.535124 c -0.11112,-0.09024 -0.2251,-0.164313 -0.25315,-0.164603 -0.028,-2.88e-4 -0.19123,-0.04839 -0.36259,-0.106893 -0.32024,-0.109318 -1.02729,-0.21858 -1.44103,-0.222666 -0.31429,-0.0031 -0.6813,-0.09064 -0.8544,-0.203783 -0.21142,-0.138182 -0.42677,-0.515924 -0.48653,-0.853423 -0.0744,-0.419975 -0.0332,-0.541315 0.23195,-0.683327 0.16979,-0.09095 0.24805,-0.109819 0.38422,-0.09267 0.28445,0.03584 0.50225,0.180132 0.73861,0.489329 0.24585,0.321622 0.58738,0.631832 0.73972,0.671894 0.0567,0.01493 0.16459,0.06402 0.23957,0.109078 0.29755,0.178811 0.7336,0.398734 0.7906,0.398734 0.0814,0 0.28682,0.187543 0.42254,0.385688 0.10321,0.15062 0.15715,0.439123 0.0819,0.43739 -0.0161,-3.72e-4 -0.12018,-0.07451 -0.23135,-0.16475 z M 91.493859,29.366296 c -0.111955,-0.06717 -0.195278,-0.208203 -0.240453,-0.407022 -0.0714,-0.314241 0.237021,-1.500257 0.551833,-2.122043 0.218691,-0.431943 0.285692,-0.527097 0.458662,-0.651397 l 0.134639,-0.09675 0.11717,0.09161 0.117169,0.09161 -0.09321,0.105391 c -0.175113,0.198007 -0.462701,0.720349 -0.555543,1.009022 -0.241185,0.749912 -0.178573,1.413021 0.150318,1.591969 0.07948,0.04324 0.181533,0.07862 0.226798,0.07862 0.134051,0 0.07536,0.131901 -0.105671,0.237514 -0.212627,0.124035 -0.611663,0.161485 -0.761703,0.07148 z m 13.426321,-0.03411 c -0.1769,-0.0732 -0.2921,-0.149701 -0.2921,-0.193956 0,-0.02185 0.02,-0.03975 0.0444,-0.03975 0.11754,0 0.39245,-0.194413 0.49019,-0.346617 0.0999,-0.155568 0.10784,-0.197665 0.10569,-0.559506 -0.002,-0.341817 -0.0202,-0.444299 -0.14383,-0.810685 -0.14834,-0.439723 -0.21369,-0.562722 -0.48941,-0.921101 l -0.16823,-0.218656 0.0903,-0.05301 c 0.12679,-0.0744 0.32401,-0.06849 0.3874,0.01157 0.13773,0.173981 0.48563,0.884314 0.56203,1.147504 0.0262,0.09062 0.111,0.357241 0.1883,0.592509 0.11567,0.352303 0.14049,0.485594 0.14049,0.755612 0,0.364899 -0.0551,0.510722 -0.23525,0.623292 -0.12648,0.07901 -0.50283,0.08606 -0.68001,0.01273 z m -2.45649,-5.339526 c -0.0444,-0.01901 -0.22843,-0.05443 -0.40894,-0.07871 -0.18051,-0.02429 -0.5385,-0.07341 -0.79555,-0.109159 -1.602702,-0.22287 -1.975419,-0.263128 -2.454646,-0.26513 -0.392013,-0.0017 -0.864127,0.05183 -1.303686,0.147637 -0.515458,0.112357 -1.207791,0.170877 -1.955127,0.165267 -0.514191,-0.0039 -0.742246,-0.02022 -0.775706,-0.0556 -0.05524,-0.05845 -0.06678,-0.05357 0.355096,-0.149981 0.403625,-0.09223 2.243498,-0.468853 2.434157,-0.498266 0.759092,-0.117108 1.649158,-0.09433 2.512052,0.06429 1.59906,0.293925 2.41643,0.519418 2.73315,0.754019 0.0862,0.06386 0.0841,0.06537 -0.0859,0.06282 -0.0957,-0.0014 -0.21053,-0.01816 -0.25494,-0.03718 z"
             id="path8201" /></g></g></g></g></svg>
