<?xml version="1.0" encoding="UTF-8" standalone="no"?>
<!-- Created with Inkscape (http://www.inkscape.org/) -->

<svg
   xml:space="preserve"
   sodipodi:docname="logo.svg"
   inkscape:version="1.2.2 (b0a8486541, 2022-12-01)"
   inkscape:export-ydpi="96"
   inkscape:export-xdpi="96"
   inkscape:export-filename="logo.svg"
   id="svg5"
   version="1.1"
   viewBox="0 0 84.6455 22.827137"
   height="22.827137mm"
   width="84.6455mm"
   xmlns:inkscape="http://www.inkscape.org/namespaces/inkscape"
   xmlns:sodipodi="http://sodipodi.sourceforge.net/DTD/sodipodi-0.dtd"
   xmlns="http://www.w3.org/2000/svg"
   xmlns:svg="http://www.w3.org/2000/svg"><sodipodi:namedview
     id="namedview7"
     pagecolor="#ffffff"
     bordercolor="#666666"
     borderopacity="1.0"
     inkscape:showpageshadow="2"
     inkscape:pageopacity="0.0"
     inkscape:pagecheckerboard="0"
     inkscape:deskcolor="#d1d1d1"
     inkscape:document-units="mm"
     showgrid="false"
     inkscape:zoom="1.6819304"
     inkscape:cx="355.24657"
     inkscape:cy="64.806487"
     inkscape:window-width="1920"
     inkscape:window-height="1001"
     inkscape:window-x="0"
     inkscape:window-y="0"
     inkscape:window-maximized="1"
     inkscape:current-layer="g8377" /><defs
     id="defs2" /><g
     inkscape:label="Ebene 1"
     inkscape:groupmode="layer"
     id="layer1"
     style="display:inline"
     transform="translate(-47.880109,-27.850261)"><g
       id="g8377"
       transform="translate(-25.003791,-13.711941)"><g
         id="g490"
         transform="translate(45.4383,19.865765)"><text
           xml:space="preserve"
           style="font-style:normal;font-variant:normal;font-weight:normal;font-stretch:normal;font-size:8.46667px;line-height:1.25;font-family:sans-serif;-inkscape-font-specification:'sans-serif, Normal';font-variant-ligatures:normal;font-variant-caps:normal;font-variant-numeric:normal;font-variant-east-asian:normal;stroke-width:0.264583"
           x="41.149979"
           y="35.902065"
           id="text203"><tspan
             sodipodi:role="line"
             id="tspan201"
             style="font-style:normal;font-variant:normal;font-weight:normal;font-stretch:normal;font-size:8.46667px;font-family:sans-serif;-inkscape-font-specification:'sans-serif, Normal';font-variant-ligatures:normal;font-variant-caps:normal;font-variant-numeric:normal;font-variant-east-asian:normal;fill:#550000;stroke-width:0.264583"
             x="41.149979"
             y="35.902065">.</tspan></text><text
           xml:space="preserve"
           style="font-style:normal;font-variant:normal;font-weight:normal;font-stretch:normal;font-size:8.46667px;line-height:1.25;font-family:sans-serif;-inkscape-font-specification:'sans-serif, Normal';font-variant-ligatures:normal;font-variant-caps:normal;font-variant-numeric:normal;font-variant-east-asian:normal;stroke-width:0.264583"
           x="56.668346"
           y="35.902065"
           id="text203-1"><tspan
             sodipodi:role="line"
             id="tspan201-1"
             style="font-style:normal;font-variant:normal;font-weight:normal;font-stretch:normal;font-size:8.46667px;font-family:sans-serif;-inkscape-font-specification:'sans-serif, Normal';font-variant-ligatures:normal;font-variant-caps:normal;font-variant-numeric:normal;font-variant-east-asian:normal;fill:#550000;stroke-width:0.264583"
             x="56.668346"
             y="35.902065">.</tspan></text><text
           xml:space="preserve"
           style="font-style:normal;font-variant:normal;font-weight:normal;font-stretch:normal;font-size:8.46667px;line-height:1.25;font-family:sans-serif;-inkscape-font-specification:'sans-serif, Normal';font-variant-ligatures:normal;font-variant-caps:normal;font-variant-numeric:normal;font-variant-east-asian:normal;stroke-width:0.264583"
           x="83.885887"
           y="35.902065"
           id="text203-8"><tspan
             sodipodi:role="line"
             id="tspan201-4"
             style="font-style:normal;font-variant:normal;font-weight:normal;font-stretch:normal;font-size:8.46667px;font-family:sans-serif;-inkscape-font-specification:'sans-serif, Normal';font-variant-ligatures:normal;font-variant-caps:normal;font-variant-numeric:normal;font-variant-east-asian:normal;fill:#550000;stroke-width:0.264583"
             x="83.885887"
             y="35.902065">.</tspan></text><text
           xml:space="preserve"
           style="font-style:normal;font-variant:normal;font-weight:normal;font-stretch:normal;font-size:8.46667px;line-height:1.25;font-family:sans-serif;-inkscape-font-specification:'sans-serif, Normal';font-variant-ligatures:normal;font-variant-caps:normal;font-variant-numeric:normal;font-variant-east-asian:normal;stroke-width:0.264583"
           x="68.620827"
           y="35.902065"
           id="text203-5"><tspan
             sodipodi:role="line"
             id="tspan201-9"
             style="font-style:normal;font-variant:normal;font-weight:normal;font-stretch:normal;font-size:8.46667px;font-family:sans-serif;-inkscape-font-specification:'sans-serif, Normal';font-variant-ligatures:normal;font-variant-caps:normal;font-variant-numeric:normal;font-variant-east-asian:normal;fill:#550000;stroke-width:0.264583"
             x="68.620827"
             y="35.902065">.</tspan></text></g><text
         xml:space="preserve"
         style="font-style:normal;font-variant:normal;font-weight:900;font-stretch:normal;font-size:7.30893px;line-height:1.25;font-family:'Source Sans 3';-inkscape-font-specification:'Source Sans 3, Heavy';font-variant-ligatures:normal;font-variant-caps:normal;font-variant-numeric:diagonal-fractions;font-variant-east-asian:normal;stroke-width:0.228404"
         x="70.492477"
         y="63.586052"
         id="text113"
         transform="scale(1.0239068,0.9766514)"><tspan
           sodipodi:role="line"
           id="tspan111"
           style="font-style:normal;font-variant:normal;font-weight:900;font-stretch:normal;font-size:7.30893px;font-family:'Source Sans 3';-inkscape-font-specification:'Source Sans 3, Heavy';font-variant-ligatures:normal;font-variant-caps:normal;font-variant-numeric:diagonal-fractions;font-variant-east-asian:normal;fill:#800000;stroke-width:0.228404"
           x="70.492477"
           y="63.586052"><tspan
             style="font-style:normal;font-variant:normal;font-weight:900;font-stretch:normal;font-size:19.4905px;font-family:'Source Sans 3';-inkscape-font-specification:'Source Sans 3, Heavy';font-variant-ligatures:normal;font-variant-caps:normal;font-variant-numeric:diagonal-fractions;font-variant-east-asian:normal;stroke-width:0.228404"
             id="tspan181">G<tspan
   style="font-style:normal;font-variant:normal;font-weight:900;font-stretch:normal;font-size:7.30893px;font-family:'Source Sans 3';-inkscape-font-specification:'Source Sans 3, Heavy';font-variant-ligatures:normal;font-variant-caps:normal;font-variant-numeric:diagonal-fractions;font-variant-east-asian:normal;stroke-width:0.228404"
   id="tspan189"> </tspan>A<tspan
   style="font-style:normal;font-variant:normal;font-weight:900;font-stretch:normal;font-size:7.30893px;font-family:'Source Sans 3';-inkscape-font-specification:'Source Sans 3, Heavy';font-variant-ligatures:normal;font-variant-caps:normal;font-variant-numeric:diagonal-fractions;font-variant-east-asian:normal;stroke-width:0.228404"
   id="tspan191"> </tspan>T<tspan
   style="font-style:normal;font-variant:normal;font-weight:900;font-stretch:normal;font-size:7.30893px;font-family:'Source Sans 3';-inkscape-font-specification:'Source Sans 3, Heavy';font-variant-ligatures:normal;font-variant-caps:normal;font-variant-numeric:diagonal-fractions;font-variant-east-asian:normal;stroke-width:0.228404"
   id="tspan193"> </tspan>E</tspan></tspan></text><path
         style="fill:#800000;stroke-width:0.0400514"
         d="m 142.39655,64.422623 c -0.25705,-0.03057 -0.56375,-0.07511 -0.68156,-0.099 -0.11781,-0.02389 -0.50339,-0.08405 -0.85683,-0.133697 -0.81347,-0.114268 -1.00365,-0.20333 -1.37643,-0.644549 -0.14992,-0.177439 -0.26486,-0.354599 -0.2806,-0.432468 -0.0147,-0.07255 -0.0404,-0.150437 -0.0572,-0.17309 -0.0404,-0.05445 -0.14378,-0.50466 -0.19861,-0.864936 -0.0686,-0.450521 -0.0878,-1.356415 -0.035,-1.643167 0.0658,-0.35652 0.23137,-0.519172 0.52864,-0.519172 0.13923,0 0.14075,0.0017 0.0653,0.07207 -0.13216,0.12334 -0.18735,0.683417 -0.12983,1.317563 0.0669,0.737902 0.24659,1.498282 0.39935,1.690156 0.38714,0.48628 0.71875,0.580545 1.49867,0.426013 0.11007,-0.02182 0.23276,-0.0583 0.27262,-0.08107 0.36058,-0.206033 1.52245,-0.739153 1.68653,-0.773856 0.14538,-0.03074 0.17504,-0.09436 0.2128,-0.456456 0.03,-0.287511 -0.0158,-0.524644 -0.13139,-0.680002 -0.0823,-0.110672 -0.44242,-0.350224 -0.66337,-0.441297 -0.22422,-0.09243 -0.46283,-0.364683 -0.60439,-0.689623 -0.11707,-0.268735 -0.14156,-0.298581 -0.26504,-0.323078 -0.23681,-0.04698 -0.50788,-0.48316 -0.57756,-0.929345 -0.0624,-0.399825 0.002,-0.779459 0.21078,-1.2317 0.1463,-0.317692 0.1867,-0.369644 0.43584,-0.560423 0.15102,-0.115656 0.34469,-0.233877 0.43037,-0.26273 0.0857,-0.02884 0.17331,-0.06638 0.19474,-0.0834 0.0214,-0.01703 0.2142,-0.07485 0.42841,-0.128493 0.33432,-0.08374 0.48872,-0.09754 1.0905,-0.09754 0.79268,0 0.91972,0.02533 1.41394,0.281905 0.97605,0.506722 1.39164,1.737915 0.88458,2.620645 -0.10997,0.191452 -0.17939,0.261156 -0.35208,0.353556 -0.2487,0.133074 -0.26498,0.150859 -0.32829,0.358679 -0.0686,0.22506 -0.33536,0.56257 -0.50214,0.635207 -0.63731,0.277567 -0.86735,0.44499 -1.01694,0.740153 -0.11221,0.221419 -0.13537,0.400695 -0.0792,0.612989 0.0378,0.142889 0.067,0.183922 0.1312,0.184703 0.20628,0.0026 0.97103,0.2937 1.56254,0.594959 0.56832,0.289444 1.06089,0.431508 1.49944,0.432454 0.3536,7.61e-4 0.78622,-0.197601 0.95949,-0.439939 0.20568,-0.287691 0.27183,-0.486262 0.38809,-1.165103 0.0922,-0.538659 0.0954,-1.558436 0.007,-1.801949 -0.0355,-0.09627 -0.0521,-0.176925 -0.037,-0.179219 0.0979,-0.01487 0.30843,0.01911 0.35164,0.05674 0.10851,0.09452 0.20086,0.364712 0.24457,0.715484 0.0378,0.302729 0.0345,0.462448 -0.0188,0.941224 -0.0815,0.732467 -0.18244,1.226463 -0.29864,1.462153 -0.33972,0.68918 -0.7806,1.008019 -1.47816,1.069 -0.20349,0.01778 -0.57153,0.07042 -0.81787,0.11698 -0.81457,0.153936 -1.17594,0.183238 -2.41469,0.195801 -0.84593,0.0087 -1.37191,-0.0048 -1.69417,-0.04314 z m 3.21309,-0.472063 c 0.5658,-0.08408 0.65428,-0.106985 0.56472,-0.146181 -0.0428,-0.01875 -0.14969,-0.08549 -0.23744,-0.148344 -0.0877,-0.06284 -0.21042,-0.126989 -0.27262,-0.14254 -0.0622,-0.01556 -0.27394,-0.107963 -0.47055,-0.205328 -0.68815,-0.340825 -0.88603,-0.401714 -1.31723,-0.405312 -0.37839,-0.0032 -0.62316,0.05616 -0.90464,0.219271 -0.038,0.022 -0.21799,0.108271 -0.40007,0.191716 -0.18207,0.08345 -0.45849,0.214141 -0.61426,0.290427 -0.15577,0.07629 -0.30036,0.138703 -0.32131,0.138703 -0.021,0 -0.0381,0.01558 -0.0381,0.03462 0,0.05862 0.3197,0.119087 1.20734,0.228355 0.28514,0.0351 2.48804,-0.0084 2.80415,-0.05541 z m 0.12093,-4.474475 c 0.12519,-0.278851 0.13747,-0.376964 0.061,-0.487537 -0.0618,-0.08943 -0.24457,-0.09831 -0.32271,-0.01568 -0.0308,0.03252 -0.0657,0.159939 -0.0776,0.283164 l -0.0217,0.224044 0.0849,-0.133859 c 0.0799,-0.126 0.15187,-0.164756 0.20387,-0.109773 0.0279,0.02954 -0.0459,0.264217 -0.0831,0.264217 -0.0468,0 -0.16037,0.23564 -0.16037,0.332737 v 0.0935 l 0.10146,-0.09985 c 0.0558,-0.05492 0.1522,-0.212851 0.2142,-0.350964 z m -3.54823,0.252063 c 0,-0.03346 0.0438,-0.09119 0.0974,-0.1283 0.0536,-0.03711 0.0974,-0.08492 0.0974,-0.106256 0,-0.02133 -0.0387,-0.01013 -0.0859,0.02485 -0.0838,0.06209 -0.087,0.0589 -0.13287,-0.131524 -0.0258,-0.107337 -0.0441,-0.196671 -0.0407,-0.198518 0.004,-0.0018 0.0484,-0.03338 0.0999,-0.07008 l 0.0936,-0.06672 -0.10219,-0.04924 c -0.079,-0.03805 -0.11487,-0.03811 -0.15797,-2.89e-4 -0.0434,0.03811 -0.0598,0.03717 -0.0737,-0.0042 -0.0239,-0.07107 -0.22333,0.120552 -0.22333,0.214632 0,0.03747 0.0565,0.159351 0.12554,0.270837 0.17156,0.277007 0.30287,0.383157 0.30287,0.244838 z m -0.15295,-0.253628 c -0.0444,-0.05969 -0.0807,-0.128159 -0.0807,-0.152159 0,-0.02401 0.0438,0.01917 0.0974,0.09593 0.0536,0.07676 0.0974,0.145232 0.0974,0.152159 0,0.0363 -0.0419,0.0011 -0.11401,-0.09593 z m -1.43595,3.640114 c -0.0223,-0.02844 -0.0529,-0.103638 -0.068,-0.167115 -0.0151,-0.06348 -0.0691,-0.144269 -0.11997,-0.179553 -0.12315,-0.08534 -0.11672,-0.154461 0.0243,-0.260617 0.13525,-0.101851 0.15012,-0.164748 0.0389,-0.164748 -0.0931,0 -0.0931,-6.68e-4 -0.0211,-0.147576 0.0751,-0.153163 0.0367,-0.193315 -0.24922,-0.260398 -0.1298,-0.03045 -0.236,-0.06404 -0.236,-0.07462 0,-0.01059 0.035,-0.06638 0.0779,-0.123983 0.0469,-0.06306 0.0779,-0.167088 0.0779,-0.261487 0,-0.191651 0.0421,-0.22448 0.18668,-0.145431 0.16205,0.08862 0.21228,0.170335 0.2168,0.352675 l 0.004,0.162344 0.27334,0.0481 c 0.32658,0.05747 0.3746,0.08169 0.25487,0.128534 -0.0496,0.01942 -0.0786,0.0476 -0.0643,0.06265 0.0222,0.02349 0.33516,0.08091 0.58911,0.1081 0.0966,0.01024 0.29209,0.145815 0.29209,0.202391 0,0.02481 -0.0555,0.03232 -0.13631,0.01845 -0.12068,-0.02072 -0.13649,-0.01307 -0.13789,0.06669 -8.8e-4,0.04955 -0.0507,0.150832 -0.11085,0.225083 -0.1234,0.152465 -0.22627,0.145701 -0.24556,-0.01614 -0.0115,-0.09597 -0.0161,-0.09763 -0.0996,-0.03536 -0.0528,0.03939 -0.0883,0.109386 -0.0892,0.176263 l -0.002,0.110923 -0.0594,-0.115811 c -0.0817,-0.159296 -0.14931,-0.11901 -0.16414,0.09774 -0.0155,0.225764 -0.13156,0.321944 -0.23284,0.192885 z m 0.80998,-0.772033 c 0,-0.02265 -0.0273,-0.04118 -0.0607,-0.04118 -0.0334,0 -0.0499,0.01853 -0.0367,0.04118 0.0132,0.02265 0.0406,0.04118 0.0607,0.04118 0.0202,0 0.0366,-0.01853 0.0366,-0.04118 z m 5.42329,0.773479 c -0.10816,-0.05515 -0.10841,-0.08047 -0.004,-0.347065 l 0.0837,-0.213582 -0.091,-0.333379 c -0.0659,-0.240962 -0.0793,-0.345846 -0.0485,-0.378352 0.0686,-0.07258 0.31712,0.135232 0.44512,0.372248 0.062,0.114962 0.12204,0.209025 0.13327,0.209025 0.0568,0 0.23625,-0.223032 0.27366,-0.340083 l 0.0426,-0.133572 0.14243,0.150334 c 0.15906,0.167888 0.18409,0.324572 0.0844,0.528384 -0.0588,0.12009 -0.0873,0.136376 -0.33092,0.188548 -0.14029,0.03004 -0.2104,0.09542 -0.27355,0.255091 -0.0301,0.07635 -0.066,0.09218 -0.20313,0.08988 -0.0915,-0.0016 -0.20593,-0.0229 -0.25412,-0.04748 z m 3.18934,-2.195905 c -0.14842,-0.132081 -0.21923,-0.456093 -0.18743,-0.857656 0.0245,-0.309998 0.0895,-0.447672 0.61623,-1.305012 0.14674,-0.23884 0.26678,-0.456899 0.26678,-0.484576 0,-0.02768 0.0506,-0.147346 0.11258,-0.265931 0.0977,-0.187111 0.18583,-0.413336 0.41289,-1.059953 0.0279,-0.07928 0.0801,-0.264629 0.11617,-0.411874 0.0361,-0.147245 0.0892,-0.36039 0.11792,-0.473655 0.27002,-1.061295 0.43122,-3.209666 0.3971,-5.292584 -0.0185,-1.128647 -0.0849,-1.930244 -0.18225,-2.201183 -0.0219,-0.06086 -0.0398,-0.157951 -0.0398,-0.215732 0,-0.105664 -0.0179,-0.172186 -0.23317,-0.864086 -0.0645,-0.207508 -0.11742,-0.406122 -0.11742,-0.441367 0,-0.03524 -0.0253,-0.124946 -0.0561,-0.199337 -0.14245,-0.344042 -0.41134,-1.077333 -0.41134,-1.121805 0,-0.07049 -0.41355,-0.790458 -0.5804,-1.010454 -0.30069,-0.396492 -0.6627,-0.768643 -1.02892,-1.057781 -0.21038,-0.166095 -0.4079,-0.301992 -0.43893,-0.301992 -0.0501,0 -0.14851,-0.05694 -0.47961,-0.277419 l -0.0937,-0.0624 0.15212,-0.05548 c 0.0837,-0.03052 0.22661,-0.06737 0.31767,-0.08189 0.091,-0.01452 0.16551,-0.03445 0.16551,-0.04431 0,-0.0099 -0.035,-0.09463 -0.0779,-0.188403 -0.043,-0.09377 -0.0779,-0.176282 -0.0779,-0.183354 0,-0.0071 0.054,-0.01286 0.12017,-0.01286 h 0.12018 l -0.15681,-0.208274 c -0.15054,-0.199946 -0.26972,-0.473452 -0.22632,-0.519355 0.0507,-0.05366 0.34195,0.04528 0.55745,0.189383 0.17424,0.116504 0.26691,0.214945 0.35607,0.378283 l 0.12055,0.220791 0.49884,0.0063 c 0.6817,0.0086 1.05862,0.107235 1.66722,0.436363 0.0857,0.04634 0.2259,0.121207 0.31159,0.166372 0.0857,0.04517 0.19959,0.114371 0.25314,0.153795 0.0535,0.03942 0.14071,0.08594 0.19371,0.103376 0.053,0.01744 0.237,0.126758 0.40893,0.242943 0.17193,0.116183 0.35641,0.231764 0.40997,0.256839 0.0848,0.0397 0.25121,0.161175 0.66957,0.488714 0.16109,0.126128 0.83476,0.711048 0.97551,0.846991 0.0688,0.06658 0.16074,0.132561 0.20403,0.146637 0.0433,0.01408 0.15761,0.08447 0.25399,0.156424 0.23611,0.176254 0.31603,0.209927 0.99315,0.418515 1.12223,0.345702 1.26561,0.489874 1.26587,1.2728 2.2e-4,0.72038 -0.1895,2.556164 -0.35545,3.439422 -0.15583,0.829346 -0.43969,1.580753 -0.78198,2.070017 -0.46743,0.668179 -0.87995,0.825152 -1.43883,0.547518 -0.11467,-0.05697 -0.28666,-0.165181 -0.38217,-0.240465 -0.25043,-0.197426 -0.64597,-0.732814 -0.91936,-1.244415 -0.0605,-0.113268 -0.14814,-0.261542 -0.19471,-0.329501 -0.0465,-0.06797 -0.0968,-0.177655 -0.11169,-0.24377 -0.0149,-0.06611 -0.0508,-0.156134 -0.0799,-0.200043 -0.0509,-0.07681 -0.0551,-0.07539 -0.11044,0.03782 -0.0778,0.159009 -0.18929,0.578491 -0.33807,1.270916 -0.0682,0.317143 -0.13906,0.632227 -0.15761,0.700186 -0.0546,0.20023 -0.1503,1.064391 -0.19228,1.737889 -0.0843,1.352116 -0.40012,2.711072 -0.81517,3.507526 -0.1796,0.344663 -0.41874,0.711191 -0.49529,0.759179 -0.0285,0.01784 -0.1032,0.110502 -0.16589,0.205938 -0.0627,0.09543 -0.17636,0.244501 -0.25239,0.331257 -0.0761,0.08676 -0.14991,0.196682 -0.16419,0.244282 -0.0142,0.04759 -0.072,0.154079 -0.12823,0.236624 -0.12851,0.188668 -0.30155,0.5841 -0.35586,0.813213 -0.0227,0.09629 -0.057,0.175046 -0.0759,0.175046 -0.019,0 -0.0873,-0.04699 -0.15181,-0.104424 z m 5.87546,-8.456876 c 0.10309,-0.07722 0.3699,-0.571763 0.40285,-0.746507 0.0113,-0.05694 0.0548,-0.233256 0.098,-0.391829 0.21469,-0.788741 0.2555,-1.110901 0.25571,-2.018182 2e-4,-0.942228 -0.0362,-1.160588 -0.27533,-1.651891 -0.11791,-0.242326 -0.50671,-0.695379 -0.73438,-0.855811 -0.0857,-0.06039 -0.25356,-0.188082 -0.37309,-0.283786 -0.11954,-0.0957 -0.30354,-0.242565 -0.40893,-0.326357 -0.10547,-0.08379 -0.34936,-0.35254 -0.54214,-0.597218 -0.80688,-1.024051 -1.65896,-1.742271 -2.06702,-1.742271 -0.12507,0 -0.1262,0.0017 -0.0873,0.133858 0.0425,0.144261 0.10434,0.278467 0.47852,1.039984 0.37395,0.760876 0.46719,1.189231 0.50342,2.312844 0.0189,0.585094 0.0636,0.939604 0.16415,1.298794 0.0296,0.106199 0.0546,0.217401 0.0553,0.247124 7.2e-4,0.02972 0.0352,0.128185 0.0765,0.218792 0.0414,0.09062 0.0757,0.197436 0.0765,0.237388 7.3e-4,0.03995 0.0977,0.302996 0.21554,0.584546 0.1178,0.28155 0.21421,0.5287 0.21421,0.549223 0,0.02052 0.0696,0.165233 0.15475,0.321577 0.0851,0.156345 0.19489,0.367667 0.24392,0.469606 0.23449,0.487441 0.82864,1.148612 1.13971,1.268264 0.1398,0.05377 0.27669,0.03097 0.40892,-0.06815 z m -3.98449,-4.775137 c 0.24347,-0.348264 0.42449,-1.006725 0.39123,-1.423153 -0.0247,-0.309304 -0.16503,-0.776869 -0.36219,-1.206792 -0.0951,-0.207318 -0.17346,-0.392662 -0.17417,-0.411874 -0.001,-0.04557 -0.15235,-0.236812 -0.17002,-0.21581 -0.008,0.0089 -0.0945,0.194361 -0.19349,0.412199 -0.0989,0.217838 -0.25015,0.47731 -0.33597,0.576606 -0.0858,0.0993 -0.15605,0.196218 -0.15605,0.215385 0,0.01917 0.0322,0.08405 0.0716,0.144174 0.17902,0.27343 0.65172,1.491888 0.61646,1.589029 -0.0285,0.07845 0.0502,0.134502 0.0909,0.06481 0.0181,-0.03108 0.0413,0.03264 0.0578,0.159471 0.0152,0.116184 0.04,0.211234 0.0554,0.211234 0.0154,0 0.0643,-0.05187 0.10852,-0.115271 z m -13.91789,12.932402 c -0.46815,-0.323361 -1.07013,-0.929076 -1.68606,-1.69652 -0.15658,-0.195107 -0.5469,-0.884222 -0.5469,-0.965577 0,-0.0262 -0.0148,-0.06523 -0.0329,-0.08676 -0.0737,-0.08771 -0.29215,-0.803964 -0.41392,-1.357125 -0.10407,-0.47269 -0.18232,-1.272813 -0.21352,-2.182934 -0.041,-1.195747 -0.10197,-1.675744 -0.27139,-2.136148 l -0.0434,-0.117969 -0.11612,0.154517 c -0.0639,0.08498 -0.11612,0.170973 -0.11612,0.191082 0,0.03995 -0.31397,0.412264 -0.76367,0.905601 -0.53614,0.588146 -0.77671,0.653359 -1.1937,0.323572 -0.123,-0.09728 -0.22363,-0.189392 -0.22363,-0.204706 0,-0.01532 -0.0596,-0.101441 -0.13239,-0.191411 -0.0728,-0.08996 -0.18483,-0.264742 -0.24892,-0.388397 -0.0641,-0.123662 -0.20575,-0.391639 -0.31479,-0.595517 -0.10904,-0.203879 -0.19857,-0.391427 -0.19896,-0.416775 -3.9e-4,-0.02535 -0.0711,-0.182889 -0.1571,-0.350092 -0.086,-0.167204 -0.18262,-0.368876 -0.21468,-0.448164 -0.0321,-0.07928 -0.16509,-0.375834 -0.29562,-0.658997 -0.83078,-1.802328 -0.98544,-2.229551 -0.97865,-2.703274 0.004,-0.264383 0.0925,-0.511258 0.22938,-0.638178 0.0966,-0.0896 0.58705,-0.365416 0.64976,-0.365416 0.0273,0 0.27665,-0.120218 0.55401,-0.267137 0.27736,-0.146923 0.51709,-0.267396 0.53274,-0.267717 0.0157,-3.29e-4 0.12684,-0.07009 0.24708,-0.155036 0.12025,-0.08495 0.32055,-0.219322 0.44511,-0.298609 0.32205,-0.204983 0.75992,-0.520309 1.02627,-0.739058 0.12568,-0.103206 0.30056,-0.229995 0.38862,-0.281739 0.0881,-0.05174 0.19567,-0.128364 0.23911,-0.170267 0.22395,-0.216009 1.34142,-0.924463 2.09199,-1.326275 0.079,-0.04228 0.15379,-0.09433 0.16627,-0.115682 0.0125,-0.02135 0.11592,-0.0757 0.22986,-0.120796 0.11394,-0.04509 0.37212,-0.166321 0.57372,-0.269412 0.3137,-0.160415 0.37279,-0.178655 0.40986,-0.126514 0.0352,0.04953 0.0627,0.01533 0.14667,-0.182622 0.14962,-0.352573 0.42788,-0.586037 0.83754,-0.702693 0.23354,-0.06651 0.26535,-0.01208 0.11835,0.202554 -0.0944,0.1378 -0.1164,0.204472 -0.0986,0.298596 0.0131,0.06939 8e-5,0.168349 -0.0305,0.231538 -0.0294,0.0607 -0.0655,0.204953 -0.0803,0.320575 l -0.0269,0.210219 0.18357,0.02661 c 0.26196,0.03797 0.7499,0.03113 0.93,-0.01303 0.2329,-0.05712 0.25332,2.48e-4 0.038,0.106711 -0.10539,0.05211 -0.20511,0.09541 -0.2216,0.09622 -0.0165,8.07e-4 -0.0954,0.04485 -0.17526,0.09784 -0.0799,0.05301 -0.18924,0.107838 -0.24297,0.121849 -0.12926,0.0337 -0.74269,0.531633 -1.01228,0.821694 -0.29346,0.315732 -0.62314,0.715016 -0.62314,0.754686 0,0.01801 -0.0979,0.203928 -0.21765,0.413163 -0.1197,0.209235 -0.23335,0.454385 -0.25256,0.544777 -0.0192,0.09039 -0.10232,0.318923 -0.18471,0.507848 -0.28187,0.646359 -0.24246,0.516669 -0.49864,1.640904 -0.27121,1.19017 -0.32623,1.742904 -0.32633,3.278443 -1.6e-4,2.073011 0.17719,3.917264 0.48673,5.062011 0.0306,0.113267 0.0665,0.252272 0.0797,0.308905 0.11763,0.504183 0.73835,1.907861 1.10191,2.491839 0.0987,0.158571 0.20782,0.36245 0.24244,0.453063 0.0346,0.09062 0.0976,0.229619 0.13992,0.308905 0.0843,0.157844 0.26722,0.733777 0.24168,0.760791 -0.009,0.0092 -0.0881,-0.03301 -0.17635,-0.09395 z m -4.89301,-7.926118 c 0.0893,-0.05097 0.23392,-0.156478 0.32138,-0.234462 0.16629,-0.148274 0.70292,-0.951626 0.70292,-1.052295 0,-0.03197 0.0891,-0.237142 0.19797,-0.455932 0.10888,-0.21879 0.22062,-0.465721 0.24832,-0.548735 0.0277,-0.08302 0.13854,-0.318896 0.24633,-0.524178 0.10777,-0.205282 0.21427,-0.443335 0.23664,-0.529007 0.0224,-0.08568 0.0652,-0.186011 0.0952,-0.222974 0.0476,-0.05863 0.14521,-0.252518 0.44205,-0.877616 0.0395,-0.08328 0.14338,-0.287152 0.23076,-0.45306 0.0874,-0.16591 0.18222,-0.366524 0.21077,-0.445809 0.0286,-0.07928 0.0821,-0.181225 0.11892,-0.226532 0.0759,-0.09326 0.32764,-0.609415 0.36812,-0.754648 0.0147,-0.05261 0.0952,-0.242393 0.17893,-0.421744 0.0837,-0.179352 0.15226,-0.333818 0.15226,-0.343259 0,-0.0093 -0.0307,-0.0092 -0.0682,4.98e-4 -0.0375,0.0098 -0.11619,-0.01637 -0.1749,-0.05797 -0.12744,-0.09031 -0.52712,-0.567332 -0.58521,-0.698473 -0.0226,-0.05097 -0.0544,-0.09267 -0.0707,-0.09267 -0.16599,0 -1.1347,2.070014 -1.26249,2.697777 -0.0138,0.06796 -0.0496,0.188432 -0.0794,0.267718 -0.0298,0.07928 -0.10879,0.3573 -0.17551,0.61781 -0.0667,0.260511 -0.16229,0.584862 -0.21237,0.720781 -0.0501,0.135918 -0.10681,0.301771 -0.12608,0.368561 l -0.035,0.121439 -0.0666,-0.203812 c -0.183,-0.559882 -0.2297,-0.821067 -0.22792,-1.274687 0.002,-0.480585 0.0616,-0.771061 0.24989,-1.215028 0.0528,-0.124587 0.11949,-0.291401 0.14811,-0.370687 0.0286,-0.07928 0.0991,-0.218294 0.15653,-0.308906 0.0575,-0.09062 0.14401,-0.248155 0.1923,-0.350093 0.0483,-0.101931 0.16934,-0.315084 0.269,-0.473656 0.0997,-0.158572 0.20629,-0.343914 0.23697,-0.411874 0.0307,-0.06796 0.0993,-0.174531 0.15256,-0.236828 0.0532,-0.0623 0.0838,-0.113267 0.0679,-0.113267 -0.0546,0 -0.63136,0.408713 -0.72421,0.513234 -0.0511,0.05752 -0.11489,0.104583 -0.14176,0.104583 -0.0269,0 -0.11583,0.06912 -0.19768,0.153583 -0.0819,0.08447 -0.22137,0.209577 -0.31004,0.278014 -0.0887,0.06843 -0.27269,0.222216 -0.40894,0.341726 -0.34032,0.298516 -0.3134,0.277142 -0.55314,0.439324 -0.11836,0.08008 -0.22616,0.164332 -0.23955,0.187248 -0.0134,0.02291 -0.0557,0.04167 -0.0941,0.04167 -0.0384,0 -0.14234,0.0556 -0.23105,0.123558 -0.0887,0.06797 -0.17584,0.123559 -0.19363,0.123559 -0.0178,0 -0.1012,0.05508 -0.18534,0.122415 -0.0841,0.06733 -0.17632,0.122928 -0.20483,0.123558 -0.10261,0.0023 -0.82286,0.544735 -0.90116,0.678721 -0.1741,0.297906 -0.0545,0.831332 0.37759,1.683743 0.11298,0.222902 0.20542,0.415645 0.20542,0.428317 0,0.02045 0.22016,0.502045 0.66409,1.45267 0.0793,0.169898 0.16604,0.383043 0.19268,0.473656 0.0266,0.09062 0.12547,0.336193 0.21963,0.545733 0.16411,0.365173 0.17647,0.380984 0.29773,0.380984 0.0696,0 0.19958,-0.04169 0.28889,-0.09267 z m 4.74719,4.926973 c -0.0449,-0.123699 0.0165,-0.165733 0.77543,-0.530748 1.13024,-0.54362 1.54296,-0.846062 2.2194,-1.626371 0.30028,-0.346396 0.60069,-0.964504 0.70955,-1.459964 0.0468,-0.213137 0.0609,-0.444067 0.053,-0.867126 -0.029,-1.533279 -0.0437,-1.437841 0.33592,-2.169338 0.3675,-0.708085 0.53658,-1.230591 0.58003,-1.792465 0.0224,-0.289491 0.0142,-0.349673 -0.0815,-0.601286 -0.10612,-0.278857 -0.31891,-0.593603 -0.48399,-0.715875 -0.0479,-0.03548 -0.18513,-0.09157 -0.30499,-0.124677 -0.18043,-0.04983 -0.26192,-0.0516 -0.4737,-0.01024 -0.14069,0.02744 -0.26881,0.05772 -0.28472,0.06728 -0.0159,0.0096 0.026,0.129029 0.0932,0.265489 0.11638,0.236482 0.12095,0.263744 0.0977,0.581984 -0.0222,0.303937 -0.0358,0.346592 -0.15159,0.475615 -0.24542,0.273375 -0.36308,0.301276 -1.14738,0.272084 -0.43496,-0.01619 -0.78789,-0.0091 -0.94666,0.01885 -0.40924,0.07219 -0.93839,0.257311 -1.1637,0.407116 -0.22889,0.152176 -0.30592,0.136067 -0.26069,-0.05452 0.0288,-0.121477 0.38759,-0.509238 0.5347,-0.577927 0.30843,-0.14401 1.20384,-0.628833 1.3181,-0.713693 0.19967,-0.148291 0.38947,-0.341718 0.38947,-0.396923 0,-0.150148 0.35891,-0.429315 0.55343,-0.430475 0.12161,-7.24e-4 0.51832,-0.137845 0.7318,-0.252941 0.13869,-0.07477 0.25541,-0.0977 0.55932,-0.109852 0.37508,-0.01501 0.39062,-0.01195 0.66553,0.131754 0.592,0.309416 0.84276,0.749147 1.09506,1.920258 0.0658,0.305562 0.19214,0.614379 0.44534,1.088813 0.322,0.603349 0.24885,1.459494 -0.22018,2.576867 -0.18749,0.446658 -0.40089,0.869911 -0.49839,0.988499 -0.0466,0.05663 -0.10489,0.153425 -0.12963,0.215094 -0.046,0.114627 -0.27029,0.429001 -0.56435,0.790915 -0.24308,0.29916 -0.87892,0.970987 -0.91897,0.970987 -0.019,0 -0.11056,0.07561 -0.20336,0.168052 -0.0928,0.09243 -0.24832,0.21689 -0.3456,0.276585 -0.0973,0.0597 -0.29894,0.197215 -0.44815,0.305604 -0.14921,0.108385 -0.28554,0.197071 -0.30297,0.197071 -0.0174,0 -0.22834,0.09938 -0.4687,0.220831 -0.48688,0.246028 -0.89499,0.405685 -1.27436,0.498547 -0.32894,0.08051 -0.4531,0.07954 -0.48334,-0.0039 z m 0.92311,-4.259856 c -0.30095,-0.05614 -0.62613,-0.256256 -0.90287,-0.555642 l -0.24597,-0.266106 -0.11582,0.103046 c -0.0781,0.06948 -0.16244,0.102841 -0.25888,0.102431 -0.24484,-0.0011 -0.25724,-0.04715 -0.0661,-0.245525 0.14063,-0.145955 0.18194,-0.223561 0.21812,-0.409718 0.0588,-0.30236 0.0762,-0.325443 0.13481,-0.178095 0.0271,0.06807 0.0962,0.158447 0.1537,0.200847 0.0575,0.0424 0.15123,0.130078 0.20834,0.194843 0.34016,0.385723 0.92628,0.72659 1.24938,0.72659 0.25264,0 0.35456,-0.04456 0.67306,-0.294254 0.29249,-0.229313 0.57716,-0.595585 0.72084,-0.927489 0.1191,-0.275095 0.0883,-0.413386 -0.18321,-0.823547 -0.25436,-0.384216 -0.35948,-0.426097 -1.06819,-0.425598 -0.80116,5.64e-4 -0.88419,0.01877 -1.10411,0.242147 -0.10287,0.104481 -0.25965,0.291902 -0.34842,0.416494 -0.0888,0.124587 -0.29898,0.37944 -0.46715,0.566328 -0.2995,0.33282 -0.30958,0.339796 -0.49135,0.339796 -0.20248,0 -0.42937,-0.09939 -0.40513,-0.177464 0.008,-0.02699 0.11211,-0.123211 0.2305,-0.213816 0.66765,-0.510976 0.70548,-0.54579 1.01257,-0.931843 0.0788,-0.09912 0.19974,-0.25067 0.26867,-0.336775 0.0689,-0.0861 0.17619,-0.184381 0.23838,-0.218389 0.16268,-0.08897 0.66386,-0.113063 1.33634,-0.06424 0.69772,0.05065 0.91753,0.126013 0.98761,0.33862 0.0633,0.192085 0.0606,0.195692 -0.12093,0.160587 l -0.16492,-0.03189 0.10335,0.07961 c 0.0568,0.04379 0.16872,0.185736 0.24862,0.315439 0.0799,0.129704 0.21423,0.332207 0.2985,0.450007 0.17141,0.239611 0.17109,0.31904 -0.002,0.473899 -0.0581,0.05196 -0.14863,0.159351 -0.20128,0.238636 -0.13005,0.195853 -0.22748,0.303833 -0.39743,0.440482 -0.079,0.06355 -0.24554,0.201038 -0.37,0.305525 -0.4515,0.379066 -0.75141,0.482976 -1.1691,0.405062 z m 9.56804,-0.07067 c -0.22871,-0.09231 -0.33621,-0.176148 -0.35448,-0.276454 -0.009,-0.05099 -0.0657,-0.09633 -0.15314,-0.123135 -0.13566,-0.04157 -0.39991,-0.249979 -0.62822,-0.495477 -0.2856,-0.307093 -0.44546,-0.502719 -0.49523,-0.606007 -0.0508,-0.105562 -0.046,-0.120913 0.0869,-0.276537 0.15893,-0.186043 0.33823,-0.535416 0.33823,-0.659069 0,-0.0452 0.0364,-0.185098 0.0809,-0.310861 0.12405,-0.350635 0.12562,-0.351052 1.3176,-0.351052 h 1.01286 l 0.10875,0.153221 c 0.1954,0.275265 0.82343,0.938494 0.9872,1.042521 0.0881,0.05591 0.28223,0.211819 0.43159,0.346457 l 0.27156,0.244797 -0.10298,0.05704 c -0.0566,0.03137 -0.11293,0.04648 -0.12511,0.03358 -0.0126,-0.0129 -0.0485,-4.53e-4 -0.0808,0.02767 -0.0467,0.04073 -0.0618,0.04067 -0.0751,-3.71e-4 -0.009,-0.02832 -0.0597,-0.05148 -0.11236,-0.05148 -0.11854,0 -0.28234,-0.0868 -0.38067,-0.20172 -0.0408,-0.04762 -0.0977,-0.08658 -0.1265,-0.08658 -0.0287,0 -0.0524,-0.01972 -0.0524,-0.04381 0,-0.0479 -0.57978,-0.768825 -0.77356,-0.961884 -0.11403,-0.113598 -0.14671,-0.122209 -0.59849,-0.157612 -0.26285,-0.02059 -0.69116,-0.02497 -0.95181,-0.0098 l -0.47393,0.0277 -0.0458,0.1168 c -0.0251,0.06424 -0.0885,0.178068 -0.14073,0.252944 -0.15408,0.220865 -0.21479,0.49709 -0.16444,0.748191 0.0373,0.186033 0.0782,0.24894 0.32519,0.501054 0.1554,0.158573 0.35469,0.333689 0.44287,0.389147 0.0882,0.05546 0.16927,0.130535 0.18017,0.166834 0.0553,0.184248 0.71187,0.225907 1.07444,0.06817 0.22434,-0.09759 0.51688,-0.31458 0.61936,-0.4594 0.0796,-0.112357 0.23405,-0.46859 0.23405,-0.539527 0,-0.03172 0.0175,-0.0577 0.0389,-0.0577 0.0214,0 0.0391,0.02316 0.0392,0.05148 2e-4,0.02832 0.0578,0.11635 0.12805,0.19564 0.38645,0.436255 0.46618,0.545571 0.49443,0.677997 0.0352,0.164664 0.0275,0.163015 -0.21789,-0.04697 -0.0879,-0.07522 -0.19254,-0.136772 -0.23255,-0.136772 -0.04,0 -0.17077,0.102591 -0.2906,0.227984 -0.21431,0.22428 -0.3126,0.295302 -0.6607,0.477418 -0.237,0.123996 -0.72428,0.146732 -0.9751,0.0455 z m -9.37784,-0.635859 c -0.16272,-0.03133 -0.24365,-0.07683 -0.37592,-0.211342 -0.28123,-0.286007 -0.31706,-0.618753 -0.11011,-1.022501 0.0817,-0.159403 0.13763,-0.210676 0.3287,-0.301357 0.31861,-0.151212 0.45636,-0.167212 0.70151,-0.08149 0.4489,0.156967 0.61739,0.371033 0.61739,0.784408 0,0.221291 -0.0344,0.298094 -0.25847,0.576633 -0.23694,0.294568 -0.42476,0.347737 -0.90309,0.255646 z m 0.48,-0.313607 c 0.0428,-0.03975 0.10909,-0.110707 0.14722,-0.157704 0.0833,-0.102614 0.15569,-0.343916 0.10321,-0.343916 -0.0199,0 -0.0362,0.03696 -0.0362,0.08211 0,0.107679 -0.29031,0.329758 -0.43107,0.329758 -0.17006,0 -0.2295,-0.04039 -0.29524,-0.200636 -0.0348,-0.08478 -0.0695,-0.12627 -0.0804,-0.09589 -0.0334,0.09396 0.0759,0.30364 0.19988,0.383607 0.14897,0.09607 0.29085,0.09703 0.39257,0.0027 z m -0.29103,-0.612502 c 0.053,-0.03833 0.10916,-0.0893 0.12491,-0.113268 0.0511,-0.07786 0.0314,-0.282334 -0.0346,-0.359536 -0.083,-0.09697 -0.35022,-0.101236 -0.44852,-0.0072 -0.10874,0.104071 -0.093,0.326339 0.0318,0.448644 0.12143,0.119023 0.19543,0.126116 0.32643,0.03131 z m 9.13189,0.772418 c -0.29043,-0.0751 -0.60366,-0.299574 -0.70474,-0.505041 -0.15177,-0.308476 0.0421,-0.897872 0.29544,-0.897872 0.0272,0 0.0209,0.03448 -0.0168,0.09154 -0.097,0.146552 -0.072,0.260375 0.0966,0.440634 0.1818,0.1942 0.27496,0.208889 0.41117,0.06484 0.0808,-0.08545 0.0948,-0.133198 0.0814,-0.278015 -0.0126,-0.134168 -0.0309,-0.17203 -0.0799,-0.162742 -0.0353,0.0067 -0.0637,-0.01489 -0.0637,-0.04828 0,-0.03322 -0.0634,-0.08254 -0.14099,-0.109592 -0.1032,-0.03599 -0.12665,-0.0588 -0.0876,-0.08494 0.0814,-0.05451 0.29715,-0.04418 0.59858,0.02866 0.24388,0.05894 0.2926,0.08826 0.4621,0.278122 0.23223,0.260113 0.29735,0.412555 0.29735,0.696002 0,0.396992 -0.17844,0.528055 -0.70952,0.521114 -0.17741,-0.0023 -0.37513,-0.01781 -0.43939,-0.03443 z m 0.62887,-0.18646 c 0.16459,-0.121913 0.26659,-0.520188 0.17319,-0.676163 -0.0383,-0.06395 -0.0562,-0.01897 -0.0988,0.249421 -0.023,0.143813 -0.147,0.294642 -0.35645,0.433192 -0.0659,0.04364 -0.059,0.04933 0.0633,0.05148 0.0755,0.0013 0.17406,-0.02473 0.21886,-0.05794 z m 1.11631,-2.535124 c -0.11112,-0.09024 -0.2251,-0.164313 -0.25315,-0.164603 -0.028,-2.88e-4 -0.19123,-0.04839 -0.36259,-0.106893 -0.32024,-0.109318 -1.02729,-0.21858 -1.44103,-0.222666 -0.31429,-0.0031 -0.6813,-0.09064 -0.8544,-0.203783 -0.21142,-0.138182 -0.42677,-0.515924 -0.48653,-0.853423 -0.0744,-0.419975 -0.0332,-0.541315 0.23195,-0.683327 0.16979,-0.09095 0.24805,-0.109819 0.38422,-0.09267 0.28445,0.03584 0.50225,0.180132 0.73861,0.489329 0.24585,0.321622 0.58738,0.631832 0.73972,0.671894 0.0567,0.01493 0.16459,0.06402 0.23957,0.109078 0.29755,0.178811 0.7336,0.398734 0.7906,0.398734 0.0814,0 0.28682,0.187543 0.42254,0.385688 0.10321,0.15062 0.15715,0.439123 0.0819,0.43739 -0.0161,-3.72e-4 -0.12018,-0.07451 -0.23135,-0.16475 z m -13.18523,-1.214266 c -0.11196,-0.06717 -0.19528,-0.208203 -0.24046,-0.407022 -0.0714,-0.314241 0.23702,-1.500257 0.55184,-2.122043 0.21869,-0.431943 0.28569,-0.527097 0.45866,-0.651397 l 0.13464,-0.09675 0.11717,0.09161 0.11717,0.09161 -0.0932,0.105391 c -0.17512,0.198007 -0.4627,0.720349 -0.55555,1.009022 -0.24118,0.749912 -0.17857,1.413021 0.15032,1.591969 0.0795,0.04324 0.18153,0.07862 0.2268,0.07862 0.13405,0 0.0754,0.131901 -0.10567,0.237514 -0.21263,0.124035 -0.61166,0.161485 -0.7617,0.07148 z m 13.42632,-0.03411 c -0.1769,-0.0732 -0.2921,-0.149701 -0.2921,-0.193956 0,-0.02185 0.02,-0.03975 0.0444,-0.03975 0.11754,0 0.39245,-0.194413 0.49019,-0.346617 0.0999,-0.155568 0.10784,-0.197665 0.10569,-0.559506 -0.002,-0.341817 -0.0202,-0.444299 -0.14383,-0.810685 -0.14834,-0.439723 -0.21369,-0.562722 -0.48941,-0.921101 l -0.16823,-0.218656 0.0903,-0.05301 c 0.12679,-0.0744 0.32401,-0.06849 0.3874,0.01157 0.13773,0.173981 0.48563,0.884314 0.56203,1.147504 0.0262,0.09062 0.111,0.357241 0.1883,0.592509 0.11567,0.352303 0.14049,0.485594 0.14049,0.755612 0,0.364899 -0.0551,0.510722 -0.23525,0.623292 -0.12648,0.07901 -0.50283,0.08606 -0.68001,0.01273 z m -2.45649,-5.339526 c -0.0444,-0.01901 -0.22843,-0.05443 -0.40894,-0.07871 -0.18051,-0.02429 -0.5385,-0.07341 -0.79555,-0.109159 -1.6027,-0.22287 -1.97542,-0.263128 -2.45465,-0.26513 -0.39201,-0.0017 -0.86413,0.05183 -1.30368,0.147637 -0.51546,0.112357 -1.2078,0.170877 -1.95513,0.165267 -0.51419,-0.0039 -0.74225,-0.02022 -0.77571,-0.0556 -0.0552,-0.05845 -0.0668,-0.05357 0.3551,-0.149981 0.40362,-0.09223 2.2435,-0.468853 2.43416,-0.498266 0.75909,-0.117108 1.64915,-0.09433 2.51205,0.06429 1.59906,0.293925 2.41643,0.519418 2.73315,0.754019 0.0862,0.06386 0.0841,0.06537 -0.0859,0.06282 -0.0957,-0.0014 -0.21053,-0.01816 -0.25494,-0.03718 z"
         id="path8201" /></g></g></svg>
